<svg id="Layer_1" enable-background="new 0 0 480 480" height="512" viewBox="0 0 480 480" width="512" xmlns="http://www.w3.org/2000/svg"><g><path d="m184.239 37.083-4.439 8.996-9.927 1.443c-9.84 1.43-13.769 13.531-6.651 20.468l7.184 7.002-1.696 9.887c-1.681 9.801 8.614 17.276 17.411 12.65l8.879-4.669 8.879 4.668c8.778 4.615 19.094-2.841 17.411-12.65l-1.696-9.887 7.183-7.001c7.122-6.94 3.187-19.04-6.65-20.469l-9.927-1.443-4.439-8.996c-4.401-8.916-17.123-8.912-21.522.001z"/><path d="m274.239 37.083-4.439 8.996-9.927 1.443c-9.84 1.43-13.769 13.531-6.651 20.468l7.184 7.002-1.696 9.887c-1.681 9.801 8.614 17.276 17.411 12.65l8.879-4.669 8.879 4.668c8.778 4.615 19.094-2.841 17.411-12.65l-1.696-9.887 7.183-7.001c7.122-6.94 3.187-19.04-6.65-20.469l-9.927-1.443-4.439-8.996c-4.401-8.916-17.123-8.912-21.522.001z"/><path d="m388 153h-53v-3.226c0-4.418-3.582-8-8-8s-8 3.582-8 8v3.226h-158v-21h186c13.234 0 24-10.766 24-24v-84c0-13.234-10.766-24-24-24h-214c-13.234 0-24 10.766-24 24v84c0 4.418 3.582 8 8 8s8-3.582 8-8v-84c0-4.411 3.589-8 8-8h214c4.411 0 8 3.589 8 8v84c0 4.411-3.589 8-8 8h-194c-4.418 0-8 3.582-8 8v29h-53c-13.234 0-24 10.766-24 24v18c0 13.234 10.766 24 24 24h2v245h-8c-4.418 0-8 3.582-8 8s3.582 8 8 8h308c4.418 0 8-3.582 8-8s-3.582-8-8-8h-94v-62.419c0-4.418-3.582-8-8-8s-8 3.582-8 8v62.419h-88v-90h36v66.613c0 4.418 3.582 8 8 8s8-3.582 8-8v-66.613h58c4.418 0 8-3.582 8-8s-3.582-8-8-8h-132c-4.418 0-8 3.582-8 8s3.582 8 8 8h6v90h-70v-245h228.936c4.418 0 8-3.582 8-8s-3.582-8-8-8h-246.936c-4.411 0-8-3.589-8-8v-18c0-4.411 3.589-8 8-8h296c4.411 0 8 3.589 8 8v18c0 4.411-3.589 8-8 8h-10c-4.418 0-8 3.582-8 8v224.452c0 4.418 3.582 8 8 8s8-3.582 8-8v-216.452h2c13.234 0 24-10.766 24-24v-18c0-13.234-10.766-24-24-24z"/><path d="m156 251c-4.418 0-8 3.582-8 8v50c0 4.418 3.582 8 8 8h60c4.418 0 8-3.582 8-8v-50c0-4.418-3.582-8-8-8zm52 50h-44v-34h44z"/><path d="m264 251c-4.418 0-8 3.582-8 8v50c0 4.418 3.582 8 8 8h60c4.418 0 8-3.582 8-8v-50c0-4.418-3.582-8-8-8zm52 50h-44v-34h44z"/></g></svg>