<svg id="Layer_1" enable-background="new 0 0 480 480" height="512" viewBox="0 0 480 480" width="512" xmlns="http://www.w3.org/2000/svg"><g><path d="m422 0h-364c-13.233 0-24 10.766-24 24v84c0 13.234 10.767 24 24 24h29.193c4.418 0 8-3.582 8-8s-3.582-8-8-8h-29.193c-4.411 0-8-3.589-8-8v-84c0-4.411 3.589-8 8-8h364c4.411 0 8 3.589 8 8v84c0 4.411-3.589 8-8 8h-284c-4.418 0-8 3.582-8 8v29h-38c-13.233 0-24 10.766-24 24v18c0 13.234 10.767 24 24 24h2v245h-8c-4.418 0-8 3.582-8 8s3.582 8 8 8h308c4.418 0 8-3.582 8-8s-3.582-8-8-8h-94v-62.419c0-4.418-3.582-8-8-8s-8 3.582-8 8v62.419h-88v-90h36v66.613c0 4.418 3.582 8 8 8s8-3.582 8-8v-66.613h58c4.418 0 8-3.582 8-8s-3.582-8-8-8h-132c-4.418 0-8 3.582-8 8s3.582 8 8 8h6v90h-70v-245h228.936c4.418 0 8-3.582 8-8s-3.582-8-8-8h-246.936c-4.411 0-8-3.589-8-8v-18c0-4.411 3.589-8 8-8h296c4.411 0 8 3.589 8 8v18c0 4.411-3.589 8-8 8h-10c-4.418 0-8 3.582-8 8v224.452c0 4.418 3.582 8 8 8s8-3.582 8-8v-216.452h2c13.233 0 24-10.766 24-24v-18c0-13.234-10.767-24-24-24h-38v-2.581c0-4.418-3.582-8-8-8s-8 3.582-8 8v2.581h-188v-21h276c13.233 0 24-10.766 24-24v-84c0-13.234-10.767-24-24-24z"/><path d="m220.128 47.521-9.928-1.443-4.439-8.995c-4.398-8.917-17.125-8.914-21.521-.001l-4.439 8.996-9.928 1.443c-9.84 1.43-13.769 13.531-6.65 20.468l7.184 7.002-1.695 9.887c-1.682 9.801 8.612 17.274 17.411 12.65l8.877-4.667 8.879 4.668c8.788 4.62 19.092-2.855 17.411-12.65l-1.695-9.887 7.184-7.002c7.12-6.94 3.185-19.039-6.651-20.469z"/><path d="m400.128 47.521-9.928-1.443-4.439-8.995c-4.398-8.918-17.125-8.913-21.521 0l-4.439 8.995-9.928 1.443c-9.84 1.43-13.769 13.531-6.65 20.468l7.184 7.002-1.695 9.887c-1.682 9.801 8.612 17.274 17.411 12.65l8.877-4.667 8.879 4.668c8.788 4.62 19.092-2.855 17.411-12.65l-1.695-9.887 7.184-7.002c7.12-6.94 3.185-19.039-6.651-20.469z"/><path d="m96.121 97.529 8.879-4.668 8.879 4.668c8.788 4.62 19.092-2.855 17.411-12.65l-1.695-9.887 7.184-7.002c7.121-6.94 3.186-19.039-6.65-20.468l-9.928-1.443-4.439-8.995c-4.398-8.917-17.125-8.914-21.521-.001l-4.441 8.995-9.928 1.443c-9.84 1.43-13.769 13.531-6.65 20.468l7.184 7.002-1.695 9.887c-1.683 9.801 8.611 17.275 17.41 12.651z"/><path d="m310.128 47.521-9.928-1.443-4.439-8.995c-4.398-8.917-17.125-8.914-21.521-.001l-4.439 8.996-9.928 1.443c-9.84 1.43-13.769 13.531-6.65 20.468l7.184 7.002-1.695 9.887c-1.682 9.801 8.612 17.274 17.411 12.65l8.877-4.667 8.879 4.668c8.788 4.62 19.092-2.855 17.411-12.65l-1.695-9.887 7.184-7.002c7.12-6.94 3.185-19.039-6.651-20.469z"/><path d="m156 251c-4.418 0-8 3.582-8 8v50c0 4.418 3.582 8 8 8h60c4.418 0 8-3.582 8-8v-50c0-4.418-3.582-8-8-8zm52 50h-44v-34h44z"/><path d="m264 251c-4.418 0-8 3.582-8 8v50c0 4.418 3.582 8 8 8h60c4.418 0 8-3.582 8-8v-50c0-4.418-3.582-8-8-8zm52 50h-44v-34h44z"/></g></svg>