<svg id="Layer_1" enable-background="new 0 0 480 480" height="512" viewBox="0 0 480 480" width="512" xmlns="http://www.w3.org/2000/svg"><g><path d="m456 415.957h-47.376c.888-2.504 1.376-5.195 1.376-8v-57c0-12.317-9.497-24-25-24v-9c0-17.645-14.355-32-32-32h-198.193c-4.418 0-8 3.582-8 8s3.582 8 8 8h198.193c8.822 0 16 7.178 16 16v9h-240v-85c0-13.234-10.766-24-24-24h-11c-13.234 0-24 10.766-24 24v142.129c0 4.418 3.582 8 8 8s8-3.582 8-8v-142.129c0-4.411 3.589-8 8-8h11c4.411 0 8 3.589 8 8v93c0 4.418 3.582 8 8 8h265c4.411 0 8 3.589 8 8v57c0 4.411-3.589 8-8 8h-11c-4.411 0-8-3.589-8-8v-28c0-4.418-3.582-8-8-8h-238c-4.418 0-8 3.582-8 8v28c0 4.411-3.589 8-8 8h-72v-301.872c0-6.434 3.827-12.215 9.75-14.729l191-81.056c3.972-1.686 8.529-1.686 12.501 0l191 81.056c5.923 2.514 9.75 8.295 9.75 14.729v258.001c0 4.418 3.582 8 8 8s8-3.582 8-8v-258.001c0-12.868-7.654-24.43-19.499-29.457l-191-81.056c-7.944-3.372-17.058-3.372-25.002 0l-191 81.056c-11.846 5.027-19.5 16.589-19.5 29.457v302.916c-9.829 3.003-17 12.157-17 22.956v15c0 13.233 10.767 24 24 24h432c13.233 0 24-10.767 24-24v-15c0-13.233-10.767-24-24-24zm8 39c0 4.411-3.589 8-8 8h-432c-4.411 0-8-3.589-8-8v-15c0-4.411 3.589-8 8-8h81c13.234 0 24-10.766 24-24v-20h222c0 20.661-.453 22.844 1.376 28h-185.569c-4.418 0-8 3.582-8 8s3.582 8 8 8h289.193c4.411 0 8 3.589 8 8z"/><path d="m149 161.957v17h-7c-4.418 0-8 3.582-8 8s3.582 8 8 8h196c4.418 0 8-3.582 8-8s-3.582-8-8-8h-173v-17c0-41.355 33.645-75 75-75 37.065 0 68.979 27.618 74.235 64.241.627 4.374 4.683 7.409 9.056 6.782 4.373-.628 7.41-4.682 6.782-9.056-5.535-38.562-35.314-69.661-74.144-76.557.839-9.545-6.73-17.411-15.929-17.411-9.238 0-16.757 7.902-15.929 17.398-42.61 7.555-75.071 44.858-75.071 89.603z"/></g></svg>