<svg id="Layer_1" enable-background="new 0 0 480 480" height="512" viewBox="0 0 480 480" width="512" xmlns="http://www.w3.org/2000/svg"><g><path d="m240 56.957c-54.313 0-98.5 44.187-98.5 98.5s44.187 98.5 98.5 98.5 98.5-44.187 98.5-98.5c0-32.772-16.232-63.304-43.422-81.673-3.661-2.473-8.634-1.51-11.107 2.15-2.474 3.661-1.511 8.634 2.15 11.107 22.779 15.39 36.379 40.965 36.379 68.415 0 45.491-37.009 82.5-82.5 82.5s-82.5-37.009-82.5-82.5 37.009-82.5 82.5-82.5c4.418 0 8-3.582 8-8s-3.582-7.999-8-7.999z"/><path d="m240.032 101.957c-4.418 0-8 3.582-8 8v5.458c-12.277 2.918-21.298 12.369-21.298 23.553 0 18.655 16.665 22.068 27.693 24.326 13.048 2.672 14.903 4.245 14.903 8.651 0 4.015-5.461 8.489-13.298 8.489-4.993 0-9.705-1.957-12.003-4.984-2.671-3.52-7.69-4.207-11.209-1.535-3.519 2.671-4.207 7.69-1.535 11.209 3.914 5.156 9.886 8.789 16.747 10.389v5.444c0 4.418 3.582 8 8 8s8-3.582 8-8v-5.458c12.277-2.918 21.298-12.369 21.298-23.553 0-18.655-16.665-22.068-27.693-24.326-13.048-2.672-14.903-4.245-14.903-8.651 0-4.015 5.461-8.489 13.298-8.489 4.993 0 9.705 1.957 12.003 4.984 2.672 3.52 7.69 4.207 11.209 1.535 3.519-2.671 4.207-7.69 1.535-11.209-3.914-5.156-9.886-8.789-16.747-10.389v-5.443c0-4.419-3.581-8.001-8-8.001z"/><path d="m456 415.957h-47.376c.888-2.504 1.376-5.195 1.376-8v-57c0-12.317-9.497-24-25-24v-9c0-17.645-14.355-32-32-32h-198.193c-4.418 0-8 3.582-8 8s3.582 8 8 8h198.193c8.822 0 16 7.178 16 16v9h-240v-85c0-13.234-10.766-24-24-24h-11c-13.234 0-24 10.766-24 24v142.129c0 4.418 3.582 8 8 8s8-3.582 8-8v-142.129c0-4.411 3.589-8 8-8h11c4.411 0 8 3.589 8 8v93c0 4.418 3.582 8 8 8h265c4.411 0 8 3.589 8 8v57c0 4.411-3.589 8-8 8h-11c-4.411 0-8-3.589-8-8v-28c0-4.418-3.582-8-8-8h-238c-4.418 0-8 3.582-8 8v28c0 4.411-3.589 8-8 8h-72v-301.872c0-6.434 3.827-12.215 9.75-14.729l191-81.056c3.972-1.686 8.529-1.686 12.501 0l191 81.056c5.923 2.514 9.75 8.295 9.75 14.729v258.001c0 4.418 3.582 8 8 8s8-3.582 8-8v-258.001c0-12.868-7.654-24.43-19.499-29.457l-191-81.056c-7.944-3.372-17.058-3.372-25.002 0l-191 81.056c-11.846 5.027-19.5 16.589-19.5 29.457v302.916c-9.829 3.003-17 12.157-17 22.956v15c0 13.233 10.767 24 24 24h432c13.233 0 24-10.767 24-24v-15c0-13.233-10.767-24-24-24zm8 39c0 4.411-3.589 8-8 8h-432c-4.411 0-8-3.589-8-8v-15c0-4.411 3.589-8 8-8h81c13.234 0 24-10.766 24-24v-20h222c0 20.661-.453 22.844 1.376 28h-185.569c-4.418 0-8 3.582-8 8s3.582 8 8 8h289.193c4.411 0 8 3.589 8 8z"/></g></svg>