<svg id="Layer_1" enable-background="new 0 0 480.129 480.129" height="512" viewBox="0 0 480.129 480.129" width="512" xmlns="http://www.w3.org/2000/svg"><g><path d="m294.195 182.09v-94.455c.03-48.381-39.067-87.586-87.461-87.616h-67.66c-34.299 0-64.881 19.596-79.257 50.345-16.448 2.535-29.61 16.772-29.621 34.57v97.46c0 4.418 3.582 8 8 8s8-3.582 8-8v-97.455c.006-10.5 8.533-18.988 19.047-18.988 3.269 0 6.21-1.989 7.426-5.024 10.934-27.286 36.995-44.908 66.411-44.908h67.649c39.524.024 71.491 32.048 71.466 71.611v94.455c-.004 6.485-3.666 12.126-9.03 14.988v-41.833c0-4.975-4.502-8.751-9.406-7.875-29.314 5.237-100.729 11.878-130.725-39.393-3.287-5.617-11.586-5.159-14.223.806-9.291 21.024-29.191 34.598-51.936 35.424-4.302.156-7.709 3.689-7.709 7.995v57.874c-.045 72.394 70.093 123.03 137.892 102.536 2.675 15.097 10.821 28.649 23.06 38.122l-8.227 37.334-18.785-23.205 7.27-8.126c2.946-3.292 2.665-8.35-.628-11.296-3.292-2.947-8.35-2.665-11.296.628l-9.426 10.535h-25.796c-29.9-33.418-28.181-31.76-29.842-32.685-3.682-2.089-8.367-.944-10.662 2.617-5.583 8.659-14.023 15.273-23.766 18.625l-43.117 14.837c-25.016 8.654-41.826 32.226-41.843 58.696v53.227c0 4.418 3.582 8 8 8s8-3.582 8-8v-53.222c.013-19.675 12.529-37.198 31.147-43.604 0 0 45.305-15.642 46.428-16.105l10.741 48.749c.955 4.336 5.242 7.038 9.534 6.091 4.315-.951 7.042-5.219 6.091-9.534l-11.841-53.739c2.796-2.176 5.409-4.587 7.8-7.209l21.228 23.725-17.374 103.718c-.73 4.358 2.211 8.482 6.568 9.212 4.381.731 8.486-2.231 9.212-6.568l16.89-100.832h19.407l16.89 100.832c.655 3.91 4.043 6.68 7.88 6.68 4.942 0 8.719-4.432 7.9-9.323l-12.986-77.522 14.394 17.781c4.207 5.198 12.59 3.227 14.03-3.313l12.96-58.82c.801-3.635-1.014-7.229-4.185-8.842-12.919-8.57-20.618-22.857-20.625-38.41.019-2.582-1.237-5.155-3.557-6.706-3.876-2.59-7.78-.628-7.572-.714-58.671 24.319-125.839-18.074-125.797-84.165v-50.556c21.168-2.934 39.789-14.651 51.678-32.301 29.876 37.724 82.479 44.162 130.321 37.403 0 43.963.03-51.696 0 45.573-.007 22.271-8.17 43.706-22.965 60.358-2.935 3.303-2.636 8.359.667 11.294 3.302 2.935 8.359 2.636 11.294-.667 16.529-18.603 25.993-42.287 26.912-67.069 14.4-3.549 25.115-16.552 25.125-32.021z"/><path d="m145.129 189.012v-14c0-4.418-3.582-8-8-8s-8 3.582-8 8v14c0 4.418 3.582 8 8 8s8-3.582 8-8z"/><path d="m195.129 189.012v-14c0-4.418-3.582-8-8-8s-8 3.582-8 8v14c0 4.418 3.582 8 8 8s8-3.582 8-8z"/><path d="m186.877 246.76c3.125-3.125 3.124-8.189 0-11.314-3.124-3.124-8.189-3.124-11.314 0-7.424 7.425-19.444 7.427-26.869 0-3.125-3.125-8.189-3.124-11.314 0-3.124 3.125-3.125 8.189 0 11.314 13.677 13.679 35.818 13.681 49.497 0z"/><path d="m459.532 325.186-3.581-.526c-3.953-11.542-10.156-22.277-18.201-31.499l1.341-3.38c4.376-11.032-.076-23.827-10.354-29.761l-10.715-6.187c-10.278-5.934-23.584-3.392-30.951 5.914l-2.236 2.825c-12-2.346-24.41-2.346-36.41 0l-2.236-2.825c-7.367-9.304-20.673-11.848-30.951-5.914l-10.715 6.187c-10.278 5.934-14.73 18.729-10.354 29.762l1.341 3.38c-8.045 9.222-14.248 19.957-18.201 31.499l-3.581.526c-11.742 1.727-20.597 11.979-20.597 23.847v12.373c0 11.868 8.854 22.121 20.597 23.848l3.581.526c3.953 11.542 10.156 22.277 18.201 31.499l-1.341 3.38c-4.376 11.032.076 23.827 10.354 29.761l3.47 2.003v19.685c0 4.418 3.582 8 8 8s8-3.582 8-8v-12.527c8.362 1.12 16.875-2.167 22.196-8.889l5.354-6.764c2.742-3.464 2.157-8.496-1.307-11.238-3.464-2.743-8.495-2.158-11.238 1.307l-5.354 6.764c-2.479 3.128-6.95 3.983-10.406 1.988l-10.715-6.187c-3.456-1.995-4.952-6.297-3.481-10.006l3.194-8.054c1.164-2.934.493-6.278-1.711-8.537-9.152-9.378-15.852-20.973-19.374-33.531-.854-3.041-3.415-5.295-6.539-5.754l-8.557-1.258c-3.948-.581-6.925-4.027-6.925-8.018v-12.373c0-3.99 2.977-7.437 6.925-8.017l8.557-1.258c3.124-.459 5.686-2.714 6.539-5.754 3.521-12.559 10.222-24.153 19.374-33.531 2.204-2.259 2.875-5.603 1.711-8.537l-3.194-8.053c-1.471-3.709.025-8.011 3.481-10.006l10.715-6.187c3.458-1.994 7.929-1.139 10.406 1.988l5.354 6.764c1.958 2.473 5.184 3.564 8.244 2.788 12.685-3.226 26.093-3.225 38.775 0 3.061.777 6.286-.315 8.244-2.788l5.354-6.764c2.477-3.129 6.949-3.983 10.406-1.989l10.715 6.187c3.456 1.995 4.952 6.297 3.481 10.006l-3.194 8.054c-1.164 2.934-.493 6.278 1.711 8.537 9.152 9.378 15.853 20.973 19.374 33.531.854 3.041 3.415 5.295 6.539 5.754l8.557 1.258c3.948.58 6.925 4.027 6.925 8.017v12.373c0 3.99-2.977 7.437-6.925 8.018l-8.557 1.258c-3.124.459-5.686 2.714-6.539 5.754-3.522 12.558-10.222 24.153-19.374 33.531-2.204 2.259-2.875 5.603-1.711 8.537l3.194 8.055c1.471 3.708-.025 8.01-3.481 10.005l-10.715 6.187c-3.455 1.995-7.929 1.14-10.406-1.988l-5.354-6.764c-2.742-3.465-7.774-4.049-11.238-1.307s-4.049 7.773-1.307 11.238l5.354 6.764c7.364 9.305 20.672 11.847 30.951 5.914l10.715-6.187c10.278-5.935 14.73-18.729 10.354-29.761l-1.341-3.38c8.045-9.222 14.248-19.957 18.201-31.499l3.581-.526c11.742-1.727 20.597-11.979 20.597-23.848v-12.373c.001-11.868-8.854-22.12-20.596-23.847z"/><path d="m395.459 373.001c0-18.655-16.665-22.068-27.692-24.326-13.048-2.672-14.903-4.245-14.903-8.651 0-4.015 5.461-8.489 13.298-8.489 4.993 0 9.705 1.957 12.003 4.984 2.673 3.52 7.689 4.206 11.209 1.535s4.207-7.69 1.535-11.209c-3.914-5.156-9.886-8.789-16.747-10.389v-5.443c0-4.418-3.582-8-8-8s-8 3.582-8 8v5.458c-12.277 2.918-21.298 12.369-21.298 23.553 0 18.655 16.665 22.068 27.692 24.326 13.048 2.672 14.903 4.245 14.903 8.651 0 4.015-5.461 8.489-13.298 8.489-4.993 0-9.705-1.957-12.003-4.984-2.673-3.52-7.689-4.206-11.209-1.535s-4.207 7.69-1.535 11.209c3.914 5.156 9.886 8.789 16.747 10.389v5.444c0 4.418 3.582 8 8 8s8-3.582 8-8v-5.458c12.277-2.919 21.298-12.37 21.298-23.554z"/></g></svg>