<svg id="Layer_1" enable-background="new 0 0 480.036 480.036" height="512" viewBox="0 0 480.036 480.036" width="512" xmlns="http://www.w3.org/2000/svg"><g><path d="m171.036 253.024c0 23.71 19.29 43 43 43s43-19.29 43-43c0-14.889-7.609-28.031-19.14-35.752 8.029-6.792 13.14-16.932 13.14-28.248 0-20.402-16.598-37-37-37s-37 16.598-37 37c0 11.316 5.111 21.455 13.14 28.248-11.53 7.72-19.14 20.863-19.14 35.752zm22-64c0-11.58 9.421-21 21-21s21 9.42 21 21-9.421 21-21 21-21-9.421-21-21zm21 37c14.888 0 27 12.112 27 27s-12.112 27-27 27-27-12.112-27-27 12.113-27 27-27z"/><path d="m133.294 296.024c4.418 0 8-3.582 8-8v-121c0-5.508-5.446-9.362-10.627-7.556l-17.258 6c-4.174 1.451-6.38 6.01-4.93 10.183 1.452 4.173 6.01 6.38 10.184 4.929l6.631-2.305v109.749c0 4.418 3.582 8 8 8z"/><path d="m301.036 195.024c-4.418 0-8 3.582-8 8v7h-7c-4.418 0-8 3.582-8 8s3.582 8 8 8h7v7c0 4.418 3.582 8 8 8s8-3.582 8-8v-7h7c4.418 0 8-3.582 8-8s-3.582-8-8-8h-7v-7c0-4.419-3.582-8-8-8z"/><path d="m360.973 263.644c26.279-98.907-50.329-197.62-152.937-197.62-86.796 0-158 71.222-158 158 0 102.065 96.766 177.787 195.422 153.465 4.29-1.058 6.91-5.393 5.853-9.683-1.059-4.29-5.39-6.907-9.683-5.853-88.866 21.913-175.592-46.499-175.592-137.93 0-78.299 63.701-142 142-142 94.672 0 165.959 94.152 134.672 186.762-52.802 20.425-77.851 79.73-57.785 130.961-24.322 10.793-50.145 16.277-76.886 16.277-105.869 0-192-86.131-192-192s86.131-192 192-192c107.319 0 198.411 91.378 191.654 203.497-.266 4.411 3.094 8.201 7.504 8.467 4.416.271 8.201-3.094 8.467-7.504 5.325-88.324-46.263-168.149-123.957-202.703-75.262-33.471-167.012-20.014-230.469 43.443-81.63 81.631-81.665 211.936 0 293.602 63.933 63.933 158.959 78.751 237.676 40.062 4.002-1.967 5.57-6.776 3.663-10.684-27.305-56.05 13.589-122.179 76.462-122.179 46.869 0 85 38.131 85 85s-38.131 85-85 85c-15.341 0-30.373-4.129-43.471-11.94-3.797-2.264-8.706-1.021-10.969 2.773-2.263 3.795-1.021 8.706 2.773 10.969 15.575 9.288 33.44 14.198 51.666 14.198 55.691 0 101-45.309 101-101 0-62.638-56.878-110.653-119.063-99.38z"/><path d="m374.177 396.197 42.517-42.516c3.124-3.124 3.124-8.189 0-11.313s-8.188-3.125-11.314 0l-36.723 36.723-14.83-15.554c-3.049-3.197-8.112-3.319-11.311-.27-3.197 3.049-3.318 8.113-.27 11.311l20.483 21.484c3.083 3.23 8.249 3.331 11.448.135z"/></g></svg>