<svg id="Layer_1" enable-background="new 0 0 480.08 480.08" height="512" viewBox="0 0 480.08 480.08" width="512" xmlns="http://www.w3.org/2000/svg"><g><path d="m122.684 283.76c-4.149 1.518-6.282 6.112-4.764 10.261 18.674 51.04 67.75 85.332 122.12 85.332 71.683 0 130-58.318 130-130s-58.317-130-130-130c-70.406 0-128.777 56.312-129.981 127.769-.075 4.457 3.513 8.135 8.002 8.135 4.355 0 7.922-3.494 7.996-7.865 1.041-61.778 52.174-112.038 113.983-112.038 62.859 0 114 51.14 114 114s-51.141 114-114 114c-47.681 0-90.719-30.072-107.095-74.829-1.515-4.15-6.106-6.285-10.261-4.765z"/><path d="m479.745 253.829c-.305-3.011-2.333-5.61-5.16-6.688-5.669-2.161-17.087-5.52-29.888-3.735-4.376.61-7.429 4.652-6.819 9.028s4.653 7.427 9.028 6.819c6.479-.903 12.585.059 17.135 1.277-.393 28.595-25.616 43.453-51.617 37.089 6.857-24.459 8.539-50.759 4.325-76.946 22.267-6.177 39.248-23.346 43.159-44.343 3.805-20.416-5.977-36.763-10.358-42.844-1.77-2.456-4.828-3.693-7.814-3.213-7.408 1.192-13.371 3.498-17.067 5.221-4.005 1.867-5.737 6.627-3.869 10.631 1.867 4.005 6.625 5.736 10.631 3.87 1.89-.881 4.569-1.965 7.869-2.854 13.79 24.666-.088 50.128-25.808 57.823-6.383-25.033-18.09-48.349-34.876-68.894 16.047-16.471 22.088-39.724 15.006-59.783-6.914-19.582-23.558-28.849-30.394-31.924-2.761-1.243-6.031-.783-8.379 1.128-7.108 5.789-13.072 13.213-16.793 20.906-1.924 3.978-.259 8.761 3.719 10.685 3.979 1.923 8.762.259 10.686-3.719 2.047-4.232 5.062-8.386 8.718-12.049 24.223 14.437 24.943 43.295 6.748 62.783-16.892-17.27-37.11-30.978-59.667-40.283-4.085-1.684-8.761.26-10.446 4.345-1.685 4.084.261 8.761 4.345 10.446 61.284 25.281 100.884 84.454 100.884 150.749 0 89.878-73.121 163-163 163s-163-73.122-163-163c0-66.295 39.6-125.467 100.884-150.749 4.084-1.685 6.029-6.362 4.345-10.446-1.686-4.085-6.363-6.029-10.446-4.345-22.557 9.305-42.774 23.013-59.666 40.283-18.102-19.387-17.637-48.252 6.75-62.784 3.644 3.651 6.665 7.811 8.715 12.05 1.924 3.978 6.704 5.643 10.686 3.719 3.978-1.924 5.643-6.708 3.719-10.685-3.721-7.692-9.685-15.117-16.837-20.941-2.35-1.913-5.577-2.336-8.335-1.093-6.836 3.075-23.479 12.343-30.394 31.925-7.082 20.059-1.041 43.312 15.006 59.783-16.742 20.491-28.476 43.794-34.876 68.894-25.668-7.679-39.65-33.072-25.807-57.825 3.289.887 5.976 1.973 7.868 2.855 4.004 1.866 8.765.136 10.631-3.87 1.868-4.004.136-8.764-3.869-10.631-3.696-1.724-9.659-4.029-17.119-5.229-2.999-.484-5.994.766-7.763 3.221-4.382 6.081-14.163 22.428-10.358 42.844 3.912 20.997 20.892 38.167 43.159 44.343-4.01 24.915-2.878 51.253 4.325 76.946-25.939 6.349-51.227-8.405-51.617-37.091 4.533-1.214 10.646-2.181 17.135-1.275 4.377.609 8.418-2.443 9.028-6.819.609-4.375-2.443-8.417-6.819-9.028-12.797-1.786-24.219 1.574-29.937 3.753-2.828 1.077-4.807 3.658-5.111 6.669-4.274 42.153 32.809 69.466 72.349 59.016 8.918 23.427 22.616 44.512 39.903 62.059-17.94 18.184-46.087 18.727-60.257-4.68 3.223-3.173 6.863-5.839 10.57-7.711 3.944-1.991 5.527-6.803 3.536-10.747-1.993-3.944-6.805-5.527-10.747-3.535-7.065 3.567-13.887 9.133-19.239 15.711-1.911 2.348-2.333 5.572-1.092 8.333 2.941 6.538 11.807 22.46 30.553 29.079 20.378 7.195 43.15.098 58.392-15.568 20.263 17.215 44.388 30.015 70.882 36.876-7.281 25.781-32.793 40.684-58.055 26.557 1.467-5.468 3.834-10.557 6.865-14.68 2.616-3.56 1.852-8.567-1.708-11.184-3.563-2.618-8.567-1.852-11.185 1.708-5.412 7.364-9.261 16.809-10.844 26.647-.481 2.988.766 5.993 3.221 7.763 34.744 25.036 76.93 5.828 87.378-33.51 19.356 3.188 38.991 3.191 58.365 0 10.439 39.304 52.606 58.571 87.378 33.51 2.455-1.77 3.693-4.826 3.212-7.813-1.574-9.788-5.423-19.233-10.835-26.597-2.617-3.56-7.624-4.324-11.185-1.708-3.56 2.617-4.324 7.624-1.708 11.184 3.027 4.118 5.392 9.198 6.862 14.682-25.13 14.053-50.739-.663-58.052-26.558 26.494-6.861 50.619-19.661 70.882-36.876 15.275 15.701 38.051 22.75 58.392 15.568 18.746-6.619 27.611-22.541 30.553-29.079 1.241-2.76.787-6.023-1.123-8.371-5.321-6.54-12.143-12.106-19.208-15.673-3.942-1.991-8.755-.409-10.747 3.535-1.991 3.944-.408 8.756 3.536 10.747 3.701 1.869 7.337 4.531 10.569 7.713-14.101 23.284-42.258 22.919-60.256 4.678 17.287-17.546 30.986-38.631 39.903-62.058 39.904 10.549 76.584-17.202 72.345-59.017z"/><path d="m204.199 74.426-2.493 14.538c-2.442 14.23 12.505 25.081 25.279 18.367l13.056-6.864 13.056 6.864c3.91 2.056 8.748.552 10.804-3.358s.553-8.748-3.358-10.804l-16.778-8.821c-2.33-1.226-5.115-1.226-7.445 0l-16.778 8.821c-.193.101-.783.411-1.499-.108-.715-.52-.603-1.176-.565-1.392l3.204-18.683c.445-2.595-.415-5.243-2.301-7.081l-13.574-13.231c-.156-.152-.633-.617-.359-1.458s.932-.937 1.148-.968l18.759-2.726c2.605-.379 4.858-2.015 6.023-4.376l8.39-16.999c.097-.196.392-.792 1.275-.792s1.179.597 1.275.793l8.39 16.999c1.165 2.361 3.418 3.998 6.023 4.376l18.759 2.726c.217.031.875.127 1.148.968s-.203 1.306-.359 1.458l-13.574 13.231c-3.164 3.084-3.229 8.149-.145 11.313 3.083 3.164 8.147 3.229 11.313.145l13.574-13.231c10.337-10.076 4.625-27.642-9.656-29.718l-14.597-2.121-6.528-13.227c-6.388-12.946-24.86-12.942-31.246 0l-6.528 13.227-14.597 2.121c-14.286 2.077-19.99 19.645-9.656 29.718z"/><path d="m306.804 265.786c4.384.564 8.395-2.52 8.965-6.9l6.044-46.436c.774-5.935-5.028-10.598-10.666-8.551l-38.673 14.058-26.395-30.368c-3.185-3.664-8.885-3.671-12.076 0l-26.395 30.368-38.673-14.058c-5.629-2.045-11.441 2.609-10.666 8.551l9.619 73.911c-4.347.082-7.848 3.625-7.848 7.992 0 4.418 3.582 8 8 8h144c4.418 0 8-3.582 8-8s-3.582-8-8-8h-128.018l-8.189-62.922 31.475 11.441c3.113 1.131 6.599.229 8.771-2.271l23.962-27.569 23.962 27.569c2.171 2.499 5.654 3.402 8.771 2.271l31.475-11.441-4.346 33.39c-.57 4.381 2.519 8.395 6.901 8.965z"/><path d="m232.041 252.353v11c0 4.418 3.582 8 8 8s8-3.582 8-8v-11c0-4.418-3.582-8-8-8s-8 3.582-8 8z"/></g></svg>