<svg id="Layer_1" enable-background="new 0 0 480 480" height="512" viewBox="0 0 480 480" width="512" xmlns="http://www.w3.org/2000/svg"><g><path d="m394.638 273.667c-4.348-.789-8.51 2.099-9.297 6.447s2.099 8.51 6.447 9.297c41.842 7.574 72.212 43.991 72.212 86.589 0 48.523-39.477 88-88 88s-88-39.477-88-88c0-38.547 24.656-72.254 61.36-83.897 2.903-.895 5.159-3.443 5.569-6.631.102-.8.071.132.071-10.472 0-17.645-14.355-32-32-32h-188c-5.827 0-11.289 1.573-16 4.305v-48.305c0-13.233-10.766-24-24-24h-11c-13.234 0-24 10.767-24 24v166c0 13.233 10.766 24 24 24h11c13.234 0 24-10.767 24-24v-20h127.807c4.418 0 8-3.582 8-8s-3.582-8-8-8h-135.807c-4.418 0-8 3.582-8 8v28c0 4.411-3.589 8-8 8h-11c-4.411 0-8-3.589-8-8v-166c0-4.411 3.589-8 8-8h11c4.411 0 8 3.589 8 8v93c0 4.418 3.582 8 8 8h166.774c4.418 0 8-3.582 8-8s-3.582-8-8-8h-158.774v-9c0-8.822 7.178-16 16-16h188c8.822 0 16 7.178 16 16v3.794c-57.632 21.876-84.236 89.709-55.239 145.206h-251.761c-8.822 0-16-7.178-16-16v-333c0-8.822 7.178-16 16-16h53.632c3.851 24.334 24.968 43 50.368 43 4.418 0 8-3.582 8-8s-3.582-8-8-8c-19.299 0-35-15.701-35-35s15.701-35 35-35c16.546 0 30.437 11.545 34.067 27h-28.938c-4.418 0-8 3.582-8 8s3.582 8 8 8h112.503c3.851 24.334 24.968 43 50.368 43 4.418 0 8-3.582 8-8s-3.582-8-8-8c-19.299 0-35-15.701-35-35s15.701-35 35-35c16.546 0 30.437 11.545 34.067 27h-27.002c-4.418 0-8 3.582-8 8s3.582 8 8 8h96.935c8.822 0 16 7.178 16 16v49h-368.807c-4.418 0-8 3.582-8 8s3.582 8 8 8h368.807v113.645c0 4.418 3.582 8 8 8s8-3.582 8-8v-178.645c0-17.645-14.355-32-32-32h-53.632c-3.851-24.334-24.968-43-50.368-43s-46.517 18.666-50.368 43h-67.265c-3.85-24.334-24.967-43-50.367-43s-46.517 18.666-50.368 43h-53.632c-17.645 0-32 14.355-32 32v333c0 17.645 14.355 32 32 32h262.08c19.053 24.333 48.69 40 81.92 40 57.346 0 104-46.654 104-104 0-50.342-35.9-93.379-85.362-102.333z"/><path d="m342.479 378.242c-3.198 3.049-3.318 8.113-.27 11.311l20.484 21.484c3.097 3.249 8.269 3.314 11.447.136l42.516-42.516c3.125-3.124 3.125-8.189 0-11.313-3.124-3.124-8.189-3.124-11.313 0l-36.723 36.723-14.83-15.554c-3.05-3.2-8.114-3.319-11.311-.271z"/></g></svg>