<svg id="Layer_1" enable-background="new 0 0 480.466 480.466" height="512" viewBox="0 0 480.466 480.466" width="512" xmlns="http://www.w3.org/2000/svg"><g><path d="m480.465 331.046c-.265-106.513-8.229-151.186-1.93-244.288 1.113-16.452-11.969-30.525-28.561-30.525-16.078 0-28.985 13.209-28.615 29.293 1.726 75.136-1.282 113.618-7.701 186.735-.386 4.401 2.869 8.283 7.271 8.669 4.387.388 8.281-2.869 8.669-7.27 6.47-73.713 9.503-112.519 7.758-188.502-.163-7.085 5.518-12.925 12.619-12.925 7.316 0 13.09 6.17 12.598 13.446-6.379 94.249 1.629 139.116 1.893 245.408.036 14.257-9.659 25.836-22.232 29.267v-23.12c0-17.645-14.355-32-32-32h-304.5c-4.418 0-8 3.582-8 8s3.582 8 8 8h304.5c8.822 0 16 7.178 16 16v55c0 8.822-7.178 16-16 16h-340c-8.822 0-16-7.178-16-16v-55c0-6.325 3.687-12.539 10.994-15.214 3.314-1.21 5.454-4.465 5.23-8.005-.038-.614.034.198-2.672-30.63-7.182-81.808-10.487-119.143-8.678-197.857.179-7.773-2.716-15.116-8.15-20.677-11.587-11.857-30.425-11.267-41.39.466-5.386 5.763-8.17 13.578-7.638 21.442 6.302 93.118-1.666 137.81-1.93 244.288-.02 7.897 1.987 15.702 5.801 22.569 2.146 3.861 7.014 5.254 10.878 3.109 3.862-2.146 5.254-7.016 3.109-10.878-2.491-4.484-3.801-9.589-3.789-14.76.264-106.271 8.272-151.145 1.894-245.408-.493-7.273 5.279-13.446 12.597-13.446 7.039 0 12.784 5.783 12.62 12.926-2.004 87.196 2.222 125.34 10.917 224.499-9.641 5.664-15.794 16.073-15.794 27.575v55c0 17.645 14.355 32 32 32h340c17.645 0 32-14.355 32-32v-15.506c21.667-3.761 38.29-22.686 38.232-45.681z"/><circle cx="240.233" cy="365.233" r="16"/><circle cx="300.233" cy="365.233" r="16"/><circle cx="170.233" cy="365.233" r="16"/><path d="m93.233 373.233h25c4.418 0 8-3.582 8-8s-3.582-8-8-8h-25c-4.418 0-8 3.582-8 8s3.582 8 8 8z"/><path d="m387.233 373.233c4.418 0 8-3.582 8-8s-3.582-8-8-8h-25c-4.418 0-8 3.582-8 8s3.582 8 8 8z"/><circle cx="240.233" cy="244.349" r="16"/><path d="m285.264 217.317c7.06 0 10.715-8.599 5.657-13.657-27.951-27.95-73.427-27.95-101.376 0-3.125 3.124-3.125 8.189 0 11.313 3.124 3.124 8.189 3.124 11.313 0 21.711-21.711 57.039-21.71 78.749 0 1.563 1.563 3.609 2.344 5.657 2.344z"/><path d="m323.791 178.79c7.06 0 10.715-8.599 5.657-13.657-49.307-49.307-129.116-49.313-178.429 0-3.125 3.124-3.125 8.189 0 11.313 3.124 3.124 8.189 3.124 11.313 0 43.053-43.053 112.742-43.06 155.801 0 1.563 1.563 3.61 2.344 5.658 2.344z"/><path d="m112.872 134.988c2.047 0 4.095-.781 5.657-2.343 67.262-67.262 176.137-67.272 243.408 0 3.125 3.124 8.189 3.124 11.314 0 3.124-3.124 3.124-8.189 0-11.313-73.515-73.514-192.51-73.527-266.036 0-5.054 5.053-1.406 13.656 5.657 13.656z"/></g></svg>