<svg id="Layer_1" enable-background="new 0 0 480 480" height="512" viewBox="0 0 480 480" width="512" xmlns="http://www.w3.org/2000/svg"><g><path d="m469.016 329.432c-1.982-3.951-6.79-5.545-10.738-3.564-3.949 1.98-5.545 6.788-3.564 10.737 29.131 58.087-13.192 127.395-78.714 127.395-48.523 0-88-39.477-88-88 0-70.275 79.356-113.624 139.418-71.431 4.868 3.414 11.841.45 12.527-5.65.079-.691.055 7.814.055-223.919 0-17.645-14.355-32-32-32h-53.632c-3.851-24.334-24.969-43-50.368-43s-46.517 18.666-50.368 43h-67.265c-3.85-24.334-24.968-43-50.367-43s-46.517 18.666-50.368 43h-53.632c-17.645 0-32 14.355-32 32v333c0 17.645 14.355 32 32 32h214c4.418 0 8-3.582 8-8s-3.582-8-8-8h-214c-8.822 0-16-7.178-16-16v-333c0-8.822 7.178-16 16-16h53.632c3.851 24.334 24.968 43 50.368 43 4.418 0 8-3.582 8-8s-3.582-8-8-8c-19.299 0-35-15.701-35-35s15.701-35 35-35c16.546 0 30.438 11.545 34.067 27h-25.841c-4.418 0-8 3.582-8 8s3.582 8 8 8h109.407c3.851 24.334 24.968 43 50.368 43 4.418 0 8-3.582 8-8s-3.582-8-8-8c-19.299 0-35-15.701-35-35s15.701-35 35-35c16.546 0 30.438 11.545 34.067 27h-29.324c-4.418 0-8 3.582-8 8s3.582 8 8 8h99.256c8.822 0 16 7.178 16 16v49h-364c-4.418 0-8 3.582-8 8s3.582 8 8 8h364v143.727c-18.497-9.658-39.333-13.416-60-11.031v-42.696c0-17.645-14.355-32-32-32h-160.698c-11.105 0-21.25 5.623-27.136 15.04l-35 56c-6.439 10.303-6.439 23.618 0 33.921 2.345 3.752 7.283 4.882 11.024 2.544 3.746-2.342 4.886-7.277 2.544-11.024-3.22-5.151-3.22-11.809 0-16.96l35-56c2.942-4.709 8.015-7.52 13.567-7.52h160.699c8.822 0 16 7.178 16 16v45.833c-43.789 12.256-76 52.519-76 100.167 0 57.346 46.654 104 104 104s104-46.654 104-104c0-16.368-3.695-32.036-10.984-46.569z"/><path d="m405.343 357.343-36.723 36.723-14.83-15.554c-3.049-3.197-8.112-3.319-11.311-.27-3.197 3.049-3.318 8.113-.27 11.311l20.483 21.484c3.082 3.232 8.249 3.333 11.447.136l42.517-42.516c3.124-3.124 3.124-8.189 0-11.313-3.123-3.124-8.187-3.125-11.313-.001z"/><path d="m98.576 247.115c4.295-1.037 6.937-5.358 5.899-9.653-1.036-4.295-5.354-6.934-9.653-5.9-25.213 6.083-42.822 28.469-42.822 54.438 0 40.491 41.8 67.507 78.583 51.227l13.583 21.733c5.886 9.417 16.03 15.04 27.136 15.04h62.85c4.418 0 8-3.582 8-8s-3.582-8-8-8h-62.85c-5.553 0-10.625-2.811-13.567-7.52l-13.594-21.751c10.209-8.648 17.289-20.875 19.28-34.729h12.579c4.418 0 8-3.582 8-8s-3.582-8-8-8h-20c-4.418 0-8 3.582-8 8 0 22.056-17.944 40-40 40s-40-17.944-40-40c0-18.551 12.573-34.541 30.576-38.885z"/></g></svg>