<svg id="Layer_1" enable-background="new 0 0 480 480" height="512" viewBox="0 0 480 480" width="512" xmlns="http://www.w3.org/2000/svg"><g><path d="m448 0h-416c-17.645 0-32 14.355-32 32v365c0 17.645 14.355 32 32 32h15v27c0 13.234 10.767 24 24 24h63c13.233 0 24-10.766 24-24 0-4.418-3.582-8-8-8s-8 3.582-8 8c0 4.411-3.589 8-8 8h-63c-4.411 0-8-3.589-8-8v-27h227.419c4.418 0 8-3.582 8-8s-3.582-8-8-8h-258.419c-8.822 0-16-7.178-16-16v-365c0-8.822 7.178-16 16-16h416c8.822 0 16 7.178 16 16v365c0 8.822-7.178 16-16 16h-118c-4.418 0-8 3.582-8 8v35c0 13.234 10.767 24 24 24h63c13.233 0 24-10.766 24-24 0-4.418-3.582-8-8-8s-8 3.582-8 8c0 4.411-3.589 8-8 8h-63c-4.411 0-8-3.589-8-8v-27h110c17.645 0 32-14.355 32-32v-365c0-17.645-14.355-32-32-32z"/><path d="m89 367c0 4.418 3.582 8 8 8h306c13.233 0 24-10.767 24-24v-274c0-13.233-10.767-24-24-24h-306c-13.233 0-24 10.767-24 24v29h-6c-13.233 0-24 10.767-24 24v170c0 13.233 10.767 24 24 24h18c13.233 0 24-10.767 24-24v-155.903c0-4.418-3.582-8-8-8s-8 3.582-8 8v155.903c0 4.411-3.589 8-8 8h-18c-4.411 0-8-3.589-8-8v-170c0-4.411 3.589-8 8-8h14c4.418 0 8-3.582 8-8v-37c0-4.411 3.589-8 8-8h306c4.411 0 8 3.589 8 8v274c0 4.411-3.589 8-8 8h-306c-4.418 0-8 3.582-8 8z"/><path d="m320.237 139.149c4.39-.506 7.537-4.475 7.03-8.864-.506-4.389-4.469-7.538-8.864-7.03-22.628 2.611-44.849-.674-66.039-9.766-5.951-2.555-12.777-2.553-18.729 0-21.189 9.091-43.413 12.378-66.039 9.767-14.169-1.636-26.596 9.584-26.596 23.874v21.206c0 67.31 36.045 127.739 91.829 153.949 6.46 3.036 13.879 3.037 20.352-.002 55.778-26.187 91.819-86.615 91.819-153.948 0-4.418-3.582-8-8-8s-8 3.582-8 8c0 61.159-32.43 115.901-82.618 139.463-2.148 1.009-4.608 1.01-6.749.004-50.197-23.584-82.633-78.329-82.633-139.467v-21.205c0-4.649 3.999-8.531 8.763-7.981 25.437 2.935 50.395-.751 74.182-10.958 1.941-.833 4.17-.833 6.111 0 23.785 10.206 48.743 13.892 74.181 10.958z"/><path d="m279.472 181.472-43.843 43.843-15.972-15.972c-3.125-3.124-8.189-3.124-11.314 0-3.124 3.124-3.124 8.189 0 11.313l21.629 21.629c3.126 3.125 8.189 3.124 11.314 0l49.5-49.5c3.124-3.124 3.124-8.189 0-11.313-3.125-3.124-8.189-3.124-11.314 0z"/><path d="m387 227v-26c0-4.418-3.582-8-8-8s-8 3.582-8 8v26c0 4.418 3.582 8 8 8s8-3.582 8-8z"/></g></svg>