<svg id="Layer_1" enable-background="new 0 0 480 480" height="512" viewBox="0 0 480 480" width="512" xmlns="http://www.w3.org/2000/svg"><g><path d="m146 134c0-4.418-3.582-8-8-8h-50c-4.418 0-8 3.582-8 8v50c0 4.418 3.582 8 8 8h50c4.418 0 8-3.582 8-8zm-16 42h-34v-34h34z"/><path d="m244 134c0-4.418-3.582-8-8-8h-50c-4.418 0-8 3.582-8 8v50c0 4.418 3.582 8 8 8h50c4.418 0 8-3.582 8-8zm-16 42h-34v-34h34z"/><path d="m138 233h-50c-4.418 0-8 3.582-8 8v50c0 4.418 3.582 8 8 8h50c4.418 0 8-3.582 8-8v-50c0-4.418-3.582-8-8-8zm-8 50h-34v-34h34z"/><path d="m236 233h-50c-4.418 0-8 3.582-8 8v50c0 4.418 3.582 8 8 8h50c4.418 0 8-3.582 8-8v-50c0-4.418-3.582-8-8-8zm-8 50h-34v-34h34z"/><path d="m374 102c-58.449 0-106 47.551-106 106 0 19.125 4.898 37.2 14 52.949v181.051h-112v-59.968c0-4.418-3.582-8-8-8s-8 3.582-8 8v59.968h-36v-89h88v59.226c0 4.418 3.582 8 8 8s8-3.582 8-8v-59.226h6c4.418 0 8-3.582 8-8s-3.582-8-8-8h-132c-4.418 0-8 3.582-8 8s3.582 8 8 8h6v89h-60v-354h240v23.452c0 4.418 3.582 8 8 8s8-3.582 8-8v-23.452h2c13.234 0 24-10.766 24-24v-18c0-13.234-10.766-24-24-24h-276c-13.234 0-24 10.766-24 24v11.645c0 4.418 3.582 8 8 8s8-3.582 8-8v-11.645c0-4.411 3.589-8 8-8h276c4.411 0 8 3.589 8 8v18c0 4.411-3.589 8-8 8h-266c-4.418 0-8 3.582-8 8v362h-18c-4.418 0-8 3.582-8 8s3.582 8 8 8h308c4.418 0 8-3.582 8-8s-3.582-8-8-8h-18v-160.07c26.901 27.323 65.923 38.333 103 28.576v27.769c0 4.418 3.582 8 8 8h5.622c6.903 0 10.567 8.158 5.977 13.317l-40.622 45.656c-3.17 3.562-8.75 3.6-11.954 0l-40.622-45.656c-4.589-5.158-.928-13.317 5.977-13.317h5.622c4.418 0 8-3.582 8-8s-3.582-8-8-8h-5.622c-20.729 0-31.69 24.489-17.93 39.953l40.622 45.656c9.528 10.708 26.306 10.737 35.86 0l40.622-45.656c13.151-14.782 3.745-37.997-15.552-39.84 0-31.338.005-30.385-.009-31.008-.127-5.53-5.701-9.254-10.849-7.286-58.865 22.512-122.142-20.953-122.142-84.094 0-49.626 40.374-90 90-90s90 40.374 90 90c0 24.436-9.627 47.3-27.109 64.38-3.16 3.087-3.219 8.153-.131 11.313 3.087 3.16 8.152 3.219 11.313.131 20.588-20.116 31.927-47.044 31.927-75.824 0-58.449-47.551-106-106-106z"/><path d="m374.032 262c4.418 0 8-3.582 8-8v-5.458c12.277-2.918 21.298-12.369 21.298-23.553 0-18.655-16.665-22.068-27.693-24.326-13.048-2.672-14.903-4.245-14.903-8.651 0-4.015 5.461-8.489 13.298-8.489 4.993 0 9.705 1.957 12.003 4.984 2.671 3.52 7.69 4.207 11.209 1.535 3.519-2.671 4.207-7.69 1.535-11.209-3.914-5.156-9.886-8.789-16.747-10.389v-5.444c0-4.418-3.582-8-8-8s-8 3.582-8 8v5.458c-12.277 2.918-21.298 12.369-21.298 23.553 0 18.655 16.665 22.068 27.693 24.326 13.048 2.672 14.903 4.245 14.903 8.651 0 4.015-5.461 8.489-13.298 8.489-4.993 0-9.705-1.957-12.003-4.984-2.671-3.52-7.69-4.207-11.209-1.535-3.519 2.671-4.207 7.69-1.535 11.209 3.914 5.156 9.886 8.789 16.747 10.389v5.444c0 4.418 3.582 8 8 8z"/></g></svg>