<svg id="Layer_1" enable-background="new 0 0 480 480" height="512" viewBox="0 0 480 480" width="512" xmlns="http://www.w3.org/2000/svg"><g><path d="m386.624 272.537c-4.384-.446-8.321 2.755-8.767 7.151s2.755 8.321 7.151 8.767c45.033 4.573 78.992 42.209 78.992 87.545 0 48.523-39.477 88-88 88s-88-39.477-88-88c0-38.547 24.656-72.254 61.36-83.897 3.166-.976 5.296-3.773 5.6-6.847.058-.575.04-.005.04-10.257 0-17.645-14.355-32-32-32h-188c-5.827 0-11.289 1.573-16 4.305v-48.304c0-13.233-10.766-24-24-24h-11c-13.233 0-24 10.767-24 24v166c0 13.233 10.767 24 24 24h11c13.234 0 24-10.767 24-24v-20h124.581c4.418 0 8-3.582 8-8s-3.582-8-8-8h-132.581c-4.418 0-8 3.582-8 8v28c0 4.411-3.589 8-8 8h-11c-4.411 0-8-3.589-8-8v-166c0-4.411 3.589-8 8-8h11c4.411 0 8 3.589 8 8v93c0 4.418 3.582 8 8 8h163.355c4.418 0 8-3.582 8-8s-3.582-8-8-8h-155.355v-9c0-8.822 7.178-16 16-16h188c8.822 0 16 7.178 16 16v3.794c-58.451 22.186-83.809 90.526-55.239 145.206h-251.761c-8.822 0-16-7.178-16-16v-333c0-8.822 7.178-16 16-16h53.632c3.851 24.334 24.968 43 50.368 43 4.418 0 8-3.582 8-8s-3.582-8-8-8c-19.299 0-35-15.701-35-35s15.701-35 35-35c16.546 0 30.437 11.545 34.067 27h-21.454c-4.418 0-8 3.582-8 8s3.582 8 8 8h105.02c3.851 24.334 24.968 43 50.368 43 4.418 0 8-3.582 8-8s-3.582-8-8-8c-19.299 0-35-15.701-35-35s15.701-35 35-35c16.546 0 30.437 11.545 34.067 27h-27.906c-4.418 0-8 3.582-8 8s3.582 8 8 8h97.838c8.822 0 16 7.178 16 16v49h-366.742c-4.418 0-8 3.582-8 8s3.582 8 8 8h366.742v111c0 4.418 3.582 8 8 8s8-3.582 8-8v-176c0-17.645-14.355-32-32-32h-53.632c-3.851-24.334-24.968-43-50.368-43s-46.517 18.666-50.368 43h-67.265c-3.85-24.334-24.967-43-50.367-43s-46.517 18.666-50.368 43h-53.632c-17.645 0-32 14.355-32 32v333c0 17.645 14.355 32 32 32h262.08c19.053 24.333 48.69 40 81.92 40 57.346 0 104-46.654 104-104 0-53.593-40.67-98.111-93.376-103.463z"/><path d="m411.157 340.843c-3.124-3.124-8.189-3.124-11.313 0l-23.844 23.844-23.843-23.843c-3.124-3.124-8.189-3.124-11.313 0-3.125 3.124-3.125 8.189 0 11.313l23.843 23.843-23.843 23.843c-3.125 3.124-3.125 8.189 0 11.313 3.125 3.125 8.189 3.124 11.313 0l23.843-23.843 23.843 23.843c3.125 3.125 8.189 3.124 11.313 0 3.125-3.124 3.125-8.189 0-11.313l-23.843-23.843 23.843-23.843c3.125-3.124 3.125-8.19.001-11.314z"/></g></svg>