<svg id="Layer_1" enable-background="new 0 0 480 480" height="512" viewBox="0 0 480 480" width="512" xmlns="http://www.w3.org/2000/svg"><g><path d="m456 415.957h-47.376c.888-2.504 1.376-5.196 1.376-8v-57c0-12.317-9.497-24-25-24v-9c0-17.645-14.355-32-32-32h-198.193c-4.418 0-8 3.582-8 8s3.582 8 8 8h198.193c8.822 0 16 7.178 16 16v9h-240v-85c0-13.234-10.766-24-24-24h-11c-13.234 0-24 10.766-24 24v142.129c0 4.418 3.582 8 8 8s8-3.582 8-8v-142.129c0-4.411 3.589-8 8-8h11c4.411 0 8 3.589 8 8v93c0 4.418 3.582 8 8 8h265c4.411 0 8 3.589 8 8v57c0 4.411-3.589 8-8 8h-11c-4.411 0-8-3.589-8-8v-28c0-4.418-3.582-8-8-8h-238c-4.418 0-8 3.582-8 8v28c0 4.411-3.589 8-8 8h-72v-301.872c0-6.434 3.827-12.215 9.75-14.729l191-81.056c3.971-1.686 8.528-1.687 12.501 0l191 81.056c5.922 2.514 9.749 8.295 9.749 14.729v258.001c0 4.418 3.582 8 8 8s8-3.582 8-8v-258.001c0-12.868-7.653-24.43-19.499-29.457l-191-81.056c-7.943-3.372-17.058-3.372-25.002 0l-191 81.056c-11.845 5.027-19.499 16.589-19.499 29.457v302.916c-9.829 3.003-17 12.157-17 22.956v15c0 13.233 10.767 24 24 24h432c13.233 0 24-10.767 24-24v-15c0-13.233-10.767-24-24-24zm8 39c0 4.411-3.589 8-8 8h-432c-4.411 0-8-3.589-8-8v-15c0-4.411 3.589-8 8-8h81c13.234 0 24-10.766 24-24v-20h222c0 20.661-.453 22.844 1.376 28h-185.57c-4.418 0-8 3.582-8 8s3.582 8 8 8h289.194c4.411 0 8 3.589 8 8z"/><path d="m310.326 128.75c-.346 2.443.455 4.91 2.171 6.683l13.991 14.462c1.451 1.5 2.25 3.475 2.25 5.562 0 4.418 3.582 8 8 8s8-3.582 8-8c0-6.261-2.397-12.188-6.75-16.687l-11.272-11.651 2.271-16.051c1.824-12.891-6.793-24.751-19.617-27.001l-15.966-2.801-7.599-14.32c-6.102-11.5-20.043-16.031-31.741-10.313l-14.564 7.12-14.564-7.12c-11.695-5.716-25.639-1.188-31.741 10.313l-7.598 14.32-15.968 2.801c-12.823 2.25-21.439 14.11-19.617 27l2.271 16.052-11.271 11.651c-9.052 9.357-9.052 24.017 0 33.374l11.271 11.651-2.271 16.052c-1.823 12.891 6.794 24.751 19.617 27l15.968 2.801 7.598 14.32c6.132 11.557 20.099 16.004 31.741 10.313l11.05-5.401c2.232-1.092 4.793-1.092 7.026 0l11.052 5.402c11.697 5.718 25.64 1.186 31.741-10.313l7.598-14.32 15.966-2.801c12.824-2.25 21.441-14.11 19.617-27.001l-2.818-19.923c-.618-4.375-4.665-7.421-9.041-6.801-4.375.619-7.42 4.667-6.801 9.042l2.818 19.923c.607 4.297-2.265 8.25-6.539 9l-19.818 3.477c-2.431.427-4.528 1.951-5.686 4.13l-9.43 17.774c-2.034 3.834-6.685 5.345-10.581 3.438l-11.051-5.401c-6.698-3.275-14.382-3.274-21.08 0l-11.05 5.401c-3.899 1.908-8.546.396-10.581-3.438l-9.431-17.774c-1.157-2.18-3.254-3.704-5.685-4.13l-19.819-3.477c-4.274-.75-7.146-4.703-6.539-9l2.818-19.923c.345-2.443-.456-4.909-2.171-6.683l-13.99-14.462c-3.018-3.119-3.018-8.005 0-11.124l13.99-14.462c1.715-1.773 2.517-4.24 2.171-6.683l-2.818-19.923c-.608-4.297 2.264-8.251 6.539-9l19.819-3.477c2.43-.427 4.528-1.951 5.685-4.13l9.431-17.774c2.033-3.834 6.68-5.344 10.58-3.438l18.078 8.837c2.217 1.084 4.81 1.084 7.027 0l18.076-8.836c3.9-1.907 8.547-.396 10.581 3.438l9.431 17.774c1.157 2.18 3.255 3.704 5.686 4.13l19.818 3.477c4.274.75 7.146 4.703 6.539 9z"/><path d="m213.654 196.674c3.725 2.41 8.672 1.323 11.063-2.371l44-68c2.4-3.709 1.339-8.663-2.371-11.063-3.708-2.4-8.662-1.338-11.063 2.371l-44 68c-2.4 3.709-1.339 8.663 2.371 11.063z"/><circle cx="264" cy="185.957" r="12"/><circle cx="216" cy="125.957" r="12"/></g></svg>