<svg id="Layer_1" enable-background="new 0 0 480 480" height="512" viewBox="0 0 480 480" width="512" xmlns="http://www.w3.org/2000/svg"><g><path d="m463 417.001v-302.916c0-12.868-7.653-24.43-19.499-29.457l-191-81.056c-7.943-3.372-17.059-3.372-25.002 0l-191 81.056c-11.846 5.027-19.499 16.589-19.499 29.457v260.324c0 4.418 3.582 8 8 8s8-3.582 8-8v-260.324c0-6.434 3.827-12.215 9.749-14.729l191-81.056c3.973-1.686 8.529-1.686 12.502 0l191 81.056c5.922 2.514 9.749 8.295 9.749 14.729v301.872h-24.451c-4.418 0-8 3.582-8 8s3.582 8 8 8h33.451c4.411 0 8 3.589 8 8v15c0 4.411-3.589 8-8 8h-432c-4.411 0-8-3.589-8-8v-15c0-4.411 3.589-8 8-8h333c17.094 0 31-13.907 31-31v-73.046c13.229-3.536 23-15.625 23-29.954v-52c0-4.313-.686-8.562-2.036-12.627-1.394-4.193-5.924-6.464-10.115-5.069-4.192 1.394-6.462 5.922-5.068 10.115.81 2.435 1.22 4.986 1.22 7.581v52c0 8.271-6.729 15-15 15-4.418 0-8 3.582-8 8v80c0 8.271-6.729 15-15 15h-6v-81c0-4.418-3.582-8-8-8s-8 3.582-8 8v81h-6c-8.271 0-15-6.729-15-15v-80c0-4.418-3.582-8-8-8-8.271 0-15-6.729-15-15v-52c0-13.233 10.767-24 24-24h2.365c7.521 0 10.876-9.499 5.006-14.24-7.863-6.307-12.372-15.696-12.372-25.76 0-18.196 14.804-33 33-33s33 14.804 33 33c0 14.612-9.378 27.297-23.335 31.564-4.226 1.292-6.604 5.764-5.312 9.989 1.294 4.232 5.772 6.601 9.989 5.312 20.73-6.337 34.658-25.171 34.658-46.865 0-27.019-21.981-49-49-49s-49 21.981-49 49c0 9.477 2.7 18.544 7.645 26.301-15.508 5.51-26.645 20.325-26.645 37.699v52c0 14.329 9.771 26.417 23 29.954v73.046c0 5.439 1.412 10.552 3.883 15h-123.766c2.47-4.448 3.883-9.561 3.883-15v-73.046c13.229-3.536 23-15.625 23-29.954v-52c0-22.056-17.944-40-40-40-2.32 0-4.833-.276-7.37 1.759-21.386 17.152-53.63 1.993-53.63-25.759 0-18.196 14.804-33 33-33s33 14.804 33 33c0 4.418 3.582 8 8 8s8-3.582 8-8c0-27.019-21.981-49-49-49s-49 21.981-49 49 21.981 49 49 49c10.12 0 20.048-3.181 28.276-8.993 13.106.149 23.724 10.853 23.724 23.993v52c0 8.271-6.729 15-15 15-4.418 0-8 3.582-8 8v80c0 8.271-6.729 15-15 15h-6v-81c0-4.418-3.582-8-8-8s-8 3.582-8 8v81h-6c-8.271 0-15-6.729-15-15v-80c0-4.418-3.582-8-8-8-8.271 0-15-6.729-15-15v-52c0-3.243.634-6.386 1.883-9.34 1.721-4.069-.183-8.764-4.252-10.484-4.07-1.721-8.763.183-10.484 4.252-2.088 4.937-3.147 10.176-3.147 15.572v52c0 14.329 9.771 26.417 23 29.954v73.046c0 5.439 1.412 10.552 3.883 15h-71.883c-13.233 0-24 10.767-24 24v15c0 13.233 10.767 24 24 24h432c13.233 0 24-10.767 24-24v-15c0-10.799-7.171-19.952-17-22.956z"/><path d="m145.966 94.772c.584 1.066-.18.037 16.915 20.339 2.852 3.387 7.9 3.805 11.272.966 3.379-2.846 3.812-7.893.966-11.272l-4.924-5.847h39.805c4.418 0 8-3.582 8-8s-3.582-8-8-8h-39.804l4.924-5.847c2.846-3.38 2.413-8.427-.966-11.272-3.381-2.846-8.427-2.413-11.272.966-17.045 20.244-16.852 19.613-17.524 21.784-.658 2.153-.371 4.361.608 6.183z"/><path d="m262 90.957c0 4.418 3.582 8 8 8h39.804l-4.924 5.847c-2.846 3.38-2.413 8.427.966 11.272 3.366 2.834 8.415 2.427 11.272-.966 21.96-26.079 14.384-17.087 16.024-19.031 2.132-2.546 2.486-6.218.753-9.164-.554-.947.332.206-16.776-20.112-2.846-3.379-7.892-3.812-11.272-.966-3.379 2.846-3.812 7.893-.966 11.272l4.924 5.847h-39.805c-4.418.001-8 3.583-8 8.001z"/></g></svg>