<svg id="Layer_1" enable-background="new 0 0 480 480" height="512" viewBox="0 0 480 480" width="512" xmlns="http://www.w3.org/2000/svg"><g><path d="m404 0h-328c-22.056 0-40 17.944-40 40 0 4.418 3.582 8 8 8s8-3.582 8-8c0-13.233 10.767-24 24-24h328c13.233 0 24 10.767 24 24v400c0 13.233-10.767 24-24 24h-328c-13.233 0-24-10.767-24-24v-347.903c0-4.418-3.582-8-8-8s-8 3.582-8 8v347.903c0 22.056 17.944 40 40 40h328c22.056 0 40-17.944 40-40v-400c0-22.056-17.944-40-40-40z"/><path d="m127 141c-17.645 0-32 14.355-32 32v11.655c0 1.793.63 3.555 1.683 4.909 17.005 21.884 42.633 34.436 70.317 34.436h146c49.075 0 89-39.925 89-89s-39.925-89-89-89h-146c-49.075 0-89 39.925-89 89 0 4.418 3.582 8 8 8s8-3.582 8-8c0-40.252 32.748-73 73-73h146c40.252 0 73 32.748 73 73s-32.748 73-73 73h-146c-21.814 0-42.071-9.508-56-26.175v-8.825c0-8.822 7.178-16 16-16h226c3.765 0 7.284 1.264 10.179 3.654 3.408 2.815 8.449 2.333 11.263-1.073 2.813-3.407 2.333-8.449-1.073-11.263-5.715-4.719-12.948-7.318-20.369-7.318h-157v-14c0-17.645-14.355-32-32-32h-37.71c-4.418 0-8 3.582-8 8s3.582 8 8 8h37.71c8.822 0 16 7.178 16 16v14z"/><path d="m167 434h146c27.684 0 53.313-12.552 70.317-34.437 1.091-1.404 1.683-3.131 1.683-4.909v-11.654c0-17.645-14.355-32-32-32h-157v-14c0-17.645-14.355-32-32-32h-34.613c-4.418 0-8 3.582-8 8s3.582 8 8 8h34.613c8.822 0 16 7.178 16 16v14h-53c-4.317 0-8.51.847-12.459 2.519-4.069 1.722-5.972 6.416-4.25 10.485 1.721 4.068 6.413 5.972 10.484 4.25 1.967-.832 4.061-1.254 6.225-1.254h226c8.822 0 16 7.178 16 16v8.834c-13.929 16.664-34.188 26.166-56 26.166h-146c-40.252 0-73-32.748-73-73s32.748-73 73-73h146c40.252 0 73 32.748 73 73 0 4.418 3.582 8 8 8s8-3.582 8-8c0-49.075-39.925-89-89-89h-146c-49.075 0-89 39.925-89 89s39.925 89 89 89z"/></g></svg>