<svg id="Layer_1" enable-background="new 0 0 480.009 480.009" height="512" viewBox="0 0 480.009 480.009" width="512" xmlns="http://www.w3.org/2000/svg"><g><path d="m474.707 359.727c-21.485-7.703-45.156-5.588-64.943 5.8-14.901 8.577-32.64 10.414-48.759 5.518v-175.084c0-14.612 11.888-26.5 26.5-26.5s26.5 11.888 26.5 26.5v70.5h-22.807c-4.418 0-8 3.582-8 8s3.582 8 8 8h80.807c4.418 0 8-3.582 8-8s-3.582-8-8-8h-42v-70.5c0-23.435-19.065-42.5-42.5-42.5s-42.5 19.065-42.5 42.5v17.5h-115v-17.5c0-14.612 11.888-26.5 26.5-26.5 11.537 0 21.672 7.367 25.22 18.332 1.36 4.204 5.873 6.509 10.074 5.148 4.204-1.36 6.509-5.871 5.148-10.074-5.691-17.589-21.944-29.406-40.442-29.406-23.435 0-42.5 19.065-42.5 42.5v70.5h-206c-4.418 0-8 3.582-8 8s3.582 8 8 8h206v85.526c-1.613-.749-3.203-1.563-4.759-2.459-23.896-13.754-53.585-13.754-77.481 0-18.973 10.92-42.546 10.92-61.519 0-19.787-11.389-43.457-13.503-64.943-5.8-4.159 1.491-6.322 6.071-4.831 10.23s6.071 6.323 10.23 4.831c17.058-6.115 35.852-4.436 51.562 4.606 23.896 13.754 53.585 13.754 77.481 0 18.973-10.92 42.546-10.92 61.519 0 5.748 3.308 11.833 5.812 18.089 7.529.387.136.787.246 1.199.321 19.423 4.997 40.411 2.385 58.194-7.85 18.973-10.92 42.546-10.92 61.519 0 23.369 13.45 53.077 14.046 77.481 0 15.71-9.042 34.505-10.722 51.563-4.606 4.161 1.492 8.741-.672 10.23-4.831 1.49-4.16-.673-8.74-4.832-10.231zm-129.702-130.266v37h-46v-23.387c0-4.418-3.582-8-8-8s-8 3.582-8 8v23.387h-16.839c-4.418 0-8 3.582-8 8s3.582 8 8 8h78.839v29h-115v-82zm-74.241 136.066c-12.47 7.177-26.927 9.636-40.759 7.379v-45.445h115v36.315c-23.302-11.965-51.412-11.388-74.241 1.751z"/><path d="m426.764 430.527c-18.973 10.92-42.546 10.92-61.519 0-15.666-9.016-34.105-12.292-51.922-9.227-4.354.75-7.276 4.887-6.527 9.241.75 4.354 4.885 7.274 9.241 6.527 14.146-2.436 28.788.167 41.227 7.325 23.897 13.753 53.584 13.753 77.481 0 3.829-2.204 5.147-7.095 2.943-10.924s-7.097-5.145-10.924-2.942z"/><path d="m138.344 449.571c-9.133-.691-18.158-3.473-26.099-8.043-23.896-13.754-53.585-13.754-77.481 0-3.829 2.204-5.147 7.095-2.943 10.924 2.205 3.83 7.096 5.146 10.924 2.943 18.973-10.92 42.545-10.921 61.519 0 10.002 5.757 21.369 9.26 32.873 10.13 4.405.335 8.248-2.968 8.581-7.373.333-4.406-2.968-8.248-7.374-8.581z"/><path d="m100.176 173.147c4.396-.45 7.594-4.378 7.144-8.773-.449-4.395-4.379-7.595-8.773-7.144-26.718 2.732-48.543-18.398-48.543-43.769 0-24.262 19.738-44 44-44 34.892 0 55.702 38.787 37.023 67.788-2.393 3.714-1.321 8.665 2.394 11.058 3.715 2.394 8.665 1.322 11.058-2.394 6.232-9.675 9.526-20.897 9.526-32.452 0-33.084-26.916-60-60-60s-60 26.916-60 60c0 35.446 30.681 63.316 66.171 59.686z"/><path d="m11.196 74.889 10.923 6.307c3.809 2.2 8.709.915 10.928-2.928 2.209-3.826.898-8.719-2.928-10.928l-10.923-6.307c-3.826-2.21-8.719-.898-10.928 2.928-2.209 3.826-.898 8.719 2.928 10.928z"/><path d="m176.813 152.033-10.923-6.307c-3.826-2.209-8.719-.898-10.928 2.928s-.898 8.719 2.928 10.928l10.923 6.307c3.809 2.2 8.709.915 10.928-2.928 2.209-3.826.898-8.719-2.928-10.928z"/><path d="m19.196 165.889 10.923-6.307c3.827-2.209 5.137-7.102 2.928-10.928-2.209-3.827-7.103-5.135-10.928-2.928l-10.923 6.307c-3.827 2.209-5.137 7.102-2.928 10.928 2.216 3.839 7.112 5.131 10.928 2.928z"/><path d="m165.89 81.196 10.923-6.307c3.827-2.209 5.137-7.102 2.928-10.928-2.209-3.827-7.102-5.135-10.928-2.928l-10.923 6.307c-3.827 2.209-5.137 7.102-2.928 10.928 2.216 3.838 7.112 5.13 10.928 2.928z"/><path d="m94.005 43.074c4.418 0 8-3.582 8-8v-12.613c0-4.418-3.582-8-8-8s-8 3.582-8 8v12.613c0 4.418 3.581 8 8 8z"/><path d="m94.005 183.848c-4.418 0-8 3.582-8 8v12.613c0 4.418 3.582 8 8 8s8-3.582 8-8v-12.613c0-4.418-3.582-8-8-8z"/></g></svg>