<svg id="Layer_1" enable-background="new 0 0 480.129 480.129" height="512" viewBox="0 0 480.129 480.129" width="512" xmlns="http://www.w3.org/2000/svg"><g><path d="m137.129 167.012c-4.418 0-8 3.582-8 8v14c0 4.418 3.582 8 8 8s8-3.582 8-8v-14c0-4.418-3.582-8-8-8z"/><path d="m187.129 197.012c4.418 0 8-3.582 8-8v-14c0-4.418-3.582-8-8-8s-8 3.582-8 8v14c0 4.418 3.581 8 8 8z"/><path d="m148.694 235.447c-3.125-3.124-8.189-3.124-11.314 0-3.124 3.125-3.125 8.189 0 11.314 13.677 13.678 35.818 13.68 49.497 0 3.125-3.125 3.124-8.189 0-11.314-3.124-3.124-8.189-3.124-11.314 0-7.423 7.425-19.443 7.427-26.869 0z"/><path d="m363.629 237.012c-62.407 0-113.506 49.326-116.368 111.039l-8.095-2.797c-9.477-3.274-17.709-9.643-23.279-17.968-2.455-4.847-8.979-5.961-12.924-1.891-.436.459-6.706 7.477-27.935 31.203h-25.796l-23.962-26.781c2.754-5.38 4.74-11.183 5.835-17.25 68.149 20.695 138.016-30.325 138.062-102.368v-54.959c0-4.976-4.5-8.748-9.406-7.875-29.314 5.237-100.729 11.878-130.725-39.393-3.291-5.623-11.589-5.154-14.223.806-9.291 21.024-29.191 34.598-51.936 35.424-4.302.156-7.709 3.689-7.709 7.995v44.861c-5.315-2.758-8.974-8.242-8.97-14.664v-97.455c.007-10.426 8.458-18.988 19.047-18.988 3.269 0 6.21-1.989 7.426-5.024 10.934-27.286 36.995-44.908 66.411-44.908h67.649c39.525.024 71.491 32.048 71.466 71.611v92.221c0 4.418 3.582 8 8 8s8-3.582 8-8v-92.216c.03-48.381-39.067-87.586-87.461-87.616h-67.66c-34.299 0-64.881 19.596-79.257 50.345-16.448 2.535-29.61 16.772-29.621 34.57v97.455c-.01 15.593 10.902 28.277 25.048 31.652.925 25.669 10.943 49.993 28.463 68.87 3.005 3.238 8.067 3.426 11.306.421 3.238-3.006 3.427-8.068.421-11.306-15.666-16.876-24.285-38.876-24.27-61.951v-50.555c21.168-2.934 39.789-14.651 51.678-32.301 29.877 37.725 82.479 44.161 130.321 37.403v45.573c-.042 66.346-67.629 108.304-125.997 83.979-5.26-2.195-11.073 1.678-11.078 7.379-.013 19.678-12.522 37.201-31.13 43.604l-43.117 14.837c-25.016 8.653-41.826 32.225-41.843 58.695v53.227c0 4.418 3.582 8 8 8s8-3.582 8-8v-53.222c.012-19.671 12.525-37.192 31.137-43.601l43.03-14.807c10.102-3.476 18.87-9.386 25.738-16.939l19.247 21.511-18.785 23.205-.987-4.479c-.951-4.315-5.223-7.046-9.534-6.091-4.315.951-7.042 5.219-6.091 9.534l4.563 20.707c1.439 6.531 9.817 8.517 14.03 3.313l14.394-17.781-12.986 77.522c-.818 4.886 2.951 9.323 7.9 9.323 3.837 0 7.226-2.77 7.88-6.68l16.89-100.832h19.407l16.89 100.832c.727 4.337 4.831 7.3 9.212 6.568 4.357-.73 7.298-4.854 6.568-9.212l-12.986-77.522 14.394 17.781c4.195 5.183 12.587 3.239 14.03-3.313l4.795-21.763c.951-4.314-1.776-8.583-6.091-9.534-4.312-.95-8.583 1.777-9.534 6.091l-1.22 5.535-18.785-23.205 19.16-21.414c6.977 7.655 15.83 13.531 25.674 16.932l13.78 4.761c1.933 19.529 8.712 38.152 19.929 54.422 2.509 3.638 7.49 4.553 11.128 2.046 3.638-2.508 4.554-7.489 2.046-11.127-11.576-16.791-17.694-36.49-17.694-56.966 0-55.416 45.084-100.5 100.5-100.5s100.5 45.084 100.5 100.5-45.084 100.5-100.5 100.5c-15.484 0-30.329-3.423-44.122-10.174-4.005-1.954-8.799-.232-10.702 3.668-1.13 2.315-.814 3.083-.814 24.602 0 4.418 3.582 8 8 8s8-3.582 8-8v-9.013c75.465 27.39 156.139-28.773 156.139-109.584-.001-64.236-52.263-116.498-116.501-116.498z"/><path d="m369.736 418.462c21.893 5.756 42.098.571 56.872-14.627 5.932-6.088 7.188-15.378 3.055-22.596-5.513-9.635-13.5-17.625-23.086-23.099-7.337-4.206-16.675-2.928-22.705 3.105-1.798 1.798-4.388 7.879-12.977 6.099-9.287-1.922-19.386-12.117-21.188-21.389-1.656-8.52 4.504-11.01 6.208-12.717 6.008-6.006 7.279-15.326 3.088-22.67-5.502-9.617-13.495-17.606-23.106-23.099-7.209-4.13-16.498-2.877-22.594 3.046-42.814 41.624 3.12 113.933 56.433 127.947zm-45.283-116.472c.955-.927 2.389-1.265 3.497-.632 7.144 4.083 13.079 10.015 17.16 17.149.542.95.454 2.139-.188 3.039-9.086 6.503-13.062 16.453-10.922 27.462 3.02 15.534 18.115 30.789 33.652 34.004 11.102 2.294 21.214-1.62 27.89-10.76.917-.672 2.126-.775 3.089-.223 7.12 4.065 13.046 10.002 17.144 17.158.602 1.051.345 2.484-.633 3.489-43.547 44.801-135.553-47.067-90.689-90.686z"/></g></svg>