<svg id="Layer_1" enable-background="new 0 0 480 480" height="512" viewBox="0 0 480 480" width="512" xmlns="http://www.w3.org/2000/svg"><g><path d="m463 417.001v-302.916c0-12.868-7.653-24.43-19.499-29.457l-191-81.056c-7.943-3.372-17.059-3.372-25.002 0l-191 81.056c-11.846 5.027-19.499 16.589-19.499 29.457v265.485c0 4.418 3.582 8 8 8s8-3.582 8-8v-265.485c0-6.434 3.827-12.215 9.749-14.729l191-81.056c3.973-1.686 8.529-1.686 12.502 0l191 81.056c5.922 2.514 9.749 8.295 9.749 14.729v309.872c0 4.544 3.811 8.271 8.5 7.975.166.01.331.025.5.025 4.411 0 8 3.589 8 8v15c0 4.411-3.589 8-8 8h-432c-4.411 0-8-3.589-8-8v-15c0-4.411 3.589-8 8-8h391.646c4.418 0 8-3.582 8-8s-3.582-8-8-8h-391.646c-13.233 0-24 10.767-24 24v15c0 13.233 10.767 24 24 24h432c13.233 0 24-10.767 24-24v-15c0-10.799-7.171-19.952-17-22.956z"/><path d="m379.742 302.94c3.279 5.594 11.423 5.074 14.117-.599 9.802-19.98 16.141-45.824 16.141-72.384 0-93.738-76.262-170-170-170s-170 76.262-170 170c0 109.489 102.191 190.675 209.135 165.472 4.301-1.013 6.965-5.321 5.952-9.622-1.014-4.3-5.319-6.964-9.622-5.952-96.949 22.843-189.465-50.769-189.465-149.898 0-84.916 69.084-154 154-154 106.485 0 180.178 105.619 145.419 204.82l-33.635-58.256c-9.233-15.994-32.323-16.016-41.568 0l-63.762 110.437c-2.686 4.652-3.704 9.863-3.064 14.94-66.823 1.835-121.39-51.793-121.39-117.941 0-65.065 52.935-118 118-118 56.676 0 105.437 40.35 115.944 95.944.819 4.341 5.002 7.194 9.346 6.375 4.342-.82 7.196-5.005 6.375-9.347-11.934-63.142-67.307-108.972-131.665-108.972-73.888 0-134 60.112-134 134 0 78.629 67.473 140.377 145.895 133.478 4.223 3.532 9.581 5.522 15.344 5.522h127.521c18.467 0 30.032-19.984 20.784-36l-3.465-6c-2.209-3.826-7.102-5.135-10.929-2.927-3.826 2.209-5.137 7.102-2.927 10.928l3.464 6c3.084 5.339-.771 12-6.928 12h-127.52c-6.166 0-10.007-6.668-6.929-12l63.762-110.437c3.083-5.341 10.778-5.332 13.855 0 .681 1.177 41.543 71.957 41.815 72.419z"/><path d="m339 259.957c0-4.418-3.582-8-8-8s-8 3.582-8 8v42c0 4.418 3.582 8 8 8s8-3.582 8-8z"/><path d="m331 322.957c-4.418 0-8 3.582-8 8v2c0 4.418 3.582 8 8 8s8-3.582 8-8v-2c0-4.418-3.582-8-8-8z"/><path d="m240 216.957c8.822 0 16 7.178 16 16 0 4.418 3.582 8 8 8s8-3.582 8-8c0-14.884-10.214-27.426-24-30.987v-63.013c0-4.418-3.582-8-8-8s-8 3.582-8 8v63.013c-11.228 2.9-20.087 11.759-22.987 22.987h-43.013c-4.418 0-8 3.582-8 8s3.582 8 8 8h43.013c2.901 11.229 11.759 20.087 22.987 22.987v5.013c0 4.418 3.582 8 8 8s8-3.582 8-8v-12c0-4.418-3.582-8-8-8-8.822 0-16-7.178-16-16s7.178-16 16-16z"/></g></svg>