<svg id="Layer_1" enable-background="new 0 0 480 480" height="512" viewBox="0 0 480 480" width="512" xmlns="http://www.w3.org/2000/svg"><g><path d="m396.5 414h-2v-82.032c0-4.418-3.582-8-8-8s-8 3.582-8 8v82.032h-26v-99.553c25.218-2.544 48.569-13.793 66.425-32.151 49.353-50.741 37.355-134.422-24.425-169.366v-80.93c0-17.645-14.355-32-32-32h-274c-17.645 0-32 14.355-32 32v382h-2c-13.233 0-24 10.766-24 24v18c0 13.234 10.767 24 24 24h342c13.233 0 24-10.766 24-24v-18c0-13.234-10.767-24-24-24zm8 42c0 4.411-3.589 8-8 8h-342c-4.411 0-8-3.589-8-8v-18c0-4.411 3.589-8 8-8h52c4.418 0 8-3.582 8-8v-366h222v11.968c0 4.418 3.582 8 8 8s8-3.582 8-8v-19.968c0-4.418-3.582-8-8-8h-238c-4.418 0-8 3.582-8 8v366h-26v-382c0-8.822 7.178-16 16-16h274c8.822 0 16 7.178 16 16v73.53c-70.152-25.661-145 26.552-145 101.47 0 45.308 28.041 84.883 69.019 100.749 4.122 1.595 8.753-.452 10.349-4.572s-.451-8.753-4.571-10.349c-35.169-13.615-58.797-48.107-58.797-85.828 0-50.729 41.271-92 92-92s92 41.271 92 92c0 50.092-39.197 90.485-89.235 91.959-3.269.099-6.204 2.205-7.31 5.357-.689 1.965-.455-4.242-.455 109.683h-176.71c-4.418 0-8 3.582-8 8s3.582 8 8 8h236.71c4.411 0 8 3.589 8 8z"/><circle cx="153.5" cy="240" r="16"/><path d="m404.478 246c0-4.418-3.582-8-8-8h-95.968l-6.002-53.402 21.351 7.761c3.114 1.132 6.6.229 8.771-2.271l16.869-19.409 16.869 19.409c2.171 2.498 5.655 3.403 8.771 2.271l21.351-7.761-2.415 21.487c-.493 4.391 2.666 8.35 7.057 8.844 4.381.486 8.35-2.666 8.844-7.057l3.855-34.306c.66-5.886-5.103-10.441-10.684-8.412l-28.309 10.29-19.302-22.208c-3.185-3.664-8.885-3.671-12.076 0l-19.302 22.208-28.309-10.29c-5.566-2.023-11.346 2.509-10.684 8.412l7.273 64.717c-3.408.917-5.92 4.02-5.92 7.717 0 4.418 3.582 8 8 8h109.957c4.421 0 8.003-3.582 8.003-8z"/></g></svg>