<svg id="Layer_1" enable-background="new 0 0 480 480" height="512" viewBox="0 0 480 480" width="512" xmlns="http://www.w3.org/2000/svg"><g><path d="m82 276c-4.418 0-8 3.582-8 8v18c0 4.418 3.582 8 8 8s8-3.582 8-8v-18c0-4.418-3.582-8-8-8z"/><path d="m456 110c-134.099 0-126.378-.122-127.838.247-4.072 1.032-6.835 5.194-5.81 9.58 13.562 57.44-29.392 106.173-82.352 106.173-46.869 0-85-38.131-85-85s38.131-85 85-85c23.71 0 45.713 9.52 61.956 26.807 3.025 3.219 8.088 3.378 11.308.352 3.22-3.025 3.377-8.088.352-11.309-19.019-20.242-45.851-31.85-73.616-31.85-59.623 0-106.372 51.583-100.505 111h-90.712c-4.418 0-8 3.582-8 8v265h-24.783v-290c0-4.411 3.589-8 8-8h86.5c4.418 0 8-3.582 8-8s-3.582-8-8-8h-86.5c-13.234 0-24 10.767-24 24v298c0 4.418 3.582 8 8 8h205c4.418 0 8-3.582 8-8v-191.8c26.84 5.131 55.576-.637 78.783-17.76v201.56h-24.783v-153.71c0-4.418-3.582-8-8-8s-8 3.582-8 8v161.71c0 4.418 3.582 8 8 8h205c4.418 0 8-3.582 8-8v-298c0-13.233-10.766-24-24-24zm-251 314h-24.783v-175.774c0-4.418-3.582-8-8-8s-8 3.582-8 8v175.774h-107.434v-257h85.616c8.472 31.773 32.081 57.433 62.601 68.744zm259 0h-24.783v-265c0-4.418-3.582-8-8-8h-63.637c-4.418 0-8 3.582-8 8s3.582 8 8 8h55.637v257h-107.434v-216.265c19.589-22.311 28.648-51.811 24.114-81.735h116.103c4.411 0 8 3.589 8 8z"/><path d="m341 276c-4.418 0-8 3.582-8 8v18c0 4.418 3.582 8 8 8s8-3.582 8-8v-18c0-4.418-3.582-8-8-8z"/><path d="m267.343 120.343-36.723 36.724-14.83-15.555c-3.05-3.197-8.113-3.317-11.311-.27-3.198 3.049-3.318 8.112-.27 11.311l20.484 21.484c3.044 3.193 8.212 3.372 11.447.137l42.516-42.517c3.125-3.125 3.125-8.19 0-11.314-3.123-3.123-8.189-3.123-11.313 0z"/></g></svg>