<svg id="Layer_1" enable-background="new 0 0 480 480" height="512" viewBox="0 0 480 480" width="512" xmlns="http://www.w3.org/2000/svg"><g><path d="m82 275.397c-4.418 0-8 3.582-8 8v18c0 4.418 3.582 8 8 8s8-3.582 8-8v-18c0-4.418-3.582-8-8-8z"/><path d="m456 109.397h-83.129c-4.418 0-8 3.582-8 8s3.582 8 8 8h83.129c4.411 0 8 3.589 8 8v290h-24.783v-265c0-4.418-3.582-8-8-8h-88.02c3.217-8.436 1.49-18.262-5.209-25.188l-11.271-11.651 2.271-16.051c1.823-12.891-6.793-24.75-19.617-27l-15.967-2.801-7.598-14.321c-6.103-11.499-20.045-16.028-31.741-10.313l-14.564 7.12-14.564-7.12c-11.697-5.719-25.639-1.188-31.741 10.313l-7.598 14.32-15.967 2.801c-4.352.764-7.261 4.91-6.498 9.262.764 4.352 4.902 7.262 9.262 6.498l19.819-3.477c2.43-.427 4.528-1.951 5.685-4.131l9.431-17.774c2.034-3.834 6.683-5.342 10.58-3.438l18.078 8.837c2.217 1.084 4.81 1.084 7.026 0l18.077-8.837c3.898-1.909 8.546-.397 10.581 3.437l9.431 17.775c1.156 2.18 3.254 3.704 5.685 4.131l19.819 3.477c4.274.75 7.146 4.703 6.539 9l-2.818 19.923c-.345 2.443.456 4.909 2.171 6.683l13.99 14.462c3.018 3.119 3.018 8.006 0 11.125l-13.99 14.462c-1.715 1.773-2.517 4.239-2.171 6.683l2.818 19.923c.608 4.297-2.264 8.25-6.539 9l-19.819 3.477c-2.43.427-4.528 1.95-5.685 4.131l-9.431 17.774c-2.035 3.835-6.681 5.344-10.58 3.438l-11.051-5.402c-6.698-3.272-14.381-3.272-21.08 0l-11.05 5.402c-3.9 1.907-8.547.396-10.581-3.437l-9.431-17.775c-1.156-2.181-3.254-3.704-5.685-4.131l-19.819-3.477c-4.274-.75-7.146-4.703-6.539-9l2.818-19.923c.345-2.443-.456-4.909-2.171-6.683l-13.99-14.462c-3.018-3.119-3.018-8.006 0-11.125l12.939-13.375c4.896-5.062 1.305-13.563-5.75-13.563h-135.702c-13.234 0-24 10.767-24 24v298c0 4.418 3.582 8 8 8h205c4.418 0 8-3.582 8-8v-158c0-4.418-3.582-8-8-8s-8 3.582-8 8v150h-24.783v-208.253l5.38.944 7.598 14.321c6.102 11.499 20.044 16.028 31.741 10.313l11.049-5.402c2.233-1.092 4.795-1.092 7.027 0 11.256 5.504 12.56 6.348 15.987 7.184v188.895c0 4.418 3.582 8 8 8h205c4.418 0 8-3.582 8-8v-298c.001-13.235-10.765-24.001-23.999-24.001zm-399.217 314v-257h53.717c4.418 0 8-3.582 8-8s-3.582-8-8-8h-61.717c-4.418 0-8 3.582-8 8v265h-24.783v-290c0-4.411 3.589-8 8-8h116.833c-8.872 9.364-8.812 23.893.179 33.188l11.271 11.651-2.271 16.051c-1.552 10.976 4.467 21.2 14.204 25.385v211.726h-107.433zm218.217-182.569c4.459-2.144 8.295-5.691 10.805-10.421l7.598-14.32 15.967-2.801c12.823-2.25 21.439-14.109 19.617-27l-2.271-16.051 3.714-3.839h92.787v257h-107.434v-168.418c0-4.418-3.582-8-8-8s-8 3.582-8 8v168.419h-24.783z"/><path d="m341 309.397c4.418 0 8-3.582 8-8v-18c0-4.418-3.582-8-8-8s-8 3.582-8 8v18c0 4.418 3.582 8 8 8z"/><path d="m265.346 101.68c-3.709-2.4-8.662-1.339-11.063 2.371l-44 68c-3.466 5.356.448 12.347 6.709 12.347 2.623 0 5.193-1.289 6.724-3.655l44-68c2.401-3.709 1.34-8.663-2.37-11.063z"/><circle cx="263" cy="172.397" r="12"/><circle cx="215" cy="112.397" r="12"/></g></svg>