<svg id="Layer_1" enable-background="new 0 0 480 480" height="512" viewBox="0 0 480 480" width="512" xmlns="http://www.w3.org/2000/svg"><g><path d="m338 0h-196c-17.645 0-32 14.355-32 32v68c0 17.645 14.355 32 32 32h7.283c14.239 0 26.934-9.7 30.873-23.589 7.338-25.873 31.284-42.843 58.225-41.314 30.083 1.73 53.647 27.212 53.647 58.013 0 30.896-17.271 50.543-54.356 61.831-4.227 1.287-6.61 5.756-5.324 9.982 1.286 4.228 5.759 6.61 9.982 5.324 43.594-13.27 65.697-39.222 65.697-77.138 0-39.271-30.189-71.77-68.729-73.985-35.185-2.031-65.475 20.97-74.536 52.922-2.028 7.15-8.249 11.954-15.48 11.954h-7.282c-8.822 0-16-7.178-16-16v-68c0-8.822 7.178-16 16-16h196c8.822 0 16 7.178 16 16v416c0 8.822-7.178 16-16 16h-196c-8.822 0-16-7.178-16-16v-169.43c0-29.471 23.053-63.881 52.474-65.887 4.408-.301 7.738-4.117 7.438-8.525s-4.102-7.736-8.526-7.438c-38.15 2.6-67.385 44.015-67.385 81.85v169.43c0 17.645 14.355 32 32 32h196c17.645 0 32-14.355 32-32v-416c-.001-17.645-14.356-32-32.001-32z"/><path d="m221.714 325.286c3.125 3.124 8.189 3.123 11.313 0l67.543-67.543c3.124-3.125 3.124-8.189 0-11.314-3.125-3.123-8.189-3.123-11.314 0l-5.747 5.747c-12.332-9.827-27.506-15.176-43.509-15.176-38.598 0-70 31.402-70 70 0 16.422 5.699 31.529 15.204 43.482l-5.775 5.774c-5.054 5.055-1.407 13.657 5.657 13.657 2.047 0 4.095-.781 5.657-2.343l5.775-5.775c11.952 9.506 27.06 15.205 43.482 15.205 38.598 0 70-31.402 70-70 0-4.418-3.582-8-8-8s-8 3.582-8 8c0 29.775-24.225 54-54 54-29.776 0-54-24.225-54-54s24.224-54 54-54c11.721 0 22.872 3.709 32.113 10.573l-50.398 50.399c-3.125 3.125-3.125 8.189-.001 11.314z"/><path d="m184 409c-4.418 0-8 3.582-8 8s3.582 8 8 8h118c4.418 0 8-3.582 8-8s-3.582-8-8-8z"/></g></svg>