<svg id="Layer_1" enable-background="new 0 0 480 480" height="512" viewBox="0 0 480 480" width="512" xmlns="http://www.w3.org/2000/svg"><g><path d="m456 415.957h-64.376c.888-2.504 1.376-5.195 1.376-8v-48c0-13.233-10.767-24-24-24h-246v-19c0-4.411 3.589-8 8-8h218c2.967 0 5.677 1.63 7.071 4.253 2.075 3.901 6.919 5.379 10.82 3.307 3.9-2.075 5.381-6.919 3.307-10.82-1.567-2.946-3.689-5.475-6.198-7.483v-81.256c0-17.645-14.355-32-32-32h-184c-17.645 0-32 14.355-32 32v41.064c0 4.418 3.582 8 8 8s8-3.582 8-8v-41.064c0-8.822 7.178-16 16-16h184c8.822 0 16 7.178 16 16v76h-146v-35c0-4.411 3.589-8 8-8h61c4.411 0 8 3.589 8 8v10.387c0 4.418 3.582 8 8 8s8-3.582 8-8v-10.387c0-13.233-10.767-24-24-24h-61c-13.233 0-24 10.767-24 24v35h-55c-13.233 0-24 10.767-24 24v19.34c-11.335 1.911-20 11.79-20 23.66v14.71c0 4.418 3.582 8 8 8s8-3.582 8-8v-14.71c0-4.411 3.589-8 8-8h258c4.411 0 8 3.589 8 8v48c0 4.411-3.589 8-8 8h-14c-4.411 0-8-3.589-8-8v-24c0-4.418-3.582-8-8-8h-198c-4.418 0-8 3.582-8 8v24c0 4.411-3.589 8-8 8h-92v-301.873c0-6.434 3.827-12.215 9.749-14.729l190.999-81.056c3.975-1.686 8.53-1.686 12.503 0l191 81.057c5.922 2.514 9.749 8.295 9.749 14.729v256.453c0 4.418 3.582 8 8 8s8-3.582 8-8v-256.454c0-12.867-7.653-24.431-19.499-29.457l-191.001-81.057c-7.943-3.371-17.056-3.372-25.001 0l-191 81.057c-11.846 5.026-19.499 16.59-19.499 29.457v302.916c-9.829 3.003-17 12.157-17 22.956v15c0 13.233 10.767 24 24 24h432c13.233 0 24-10.767 24-24v-15c0-13.233-10.767-24-24-24zm8 39c0 4.411-3.589 8-8 8h-432c-4.411 0-8-3.589-8-8v-15c0-4.411 3.589-8 8-8h101c13.233 0 24-10.767 24-24v-16h182c0 16.544-.426 18.92 1.376 24h-151.118c-4.418 0-8 3.582-8 8s3.582 8 8 8h274.742c4.411 0 8 3.589 8 8z"/></g></svg>