<svg id="Layer_1" enable-background="new 0 0 480.085 480.085" height="512" viewBox="0 0 480.085 480.085" width="512" xmlns="http://www.w3.org/2000/svg"><g><path d="m431.741 128.119-86-53.907c-10.324-6.473-23.667-6.473-33.991 0l-7.023 4.402c-3.744 2.347-4.876 7.283-2.529 11.027 2.346 3.742 7.282 4.877 11.027 2.529l7.023-4.402c5.162-3.237 11.833-3.237 16.995 0l86 53.907c4.698 2.945 7.503 8.013 7.503 13.557v202.837c0 4.418 3.582 8 8 8s8-3.582 8-8v-202.837c0-11.087-5.609-21.223-15.005-27.113z"/><path d="m404.087 377.465c-7.058-1.931-14.092-4.183-20.981-6.678-2.273-5.265-6.313-9.633-11.544-12.331-2.077-1.071-4.012-2.348-5.751-3.791-20.059-16.655-46.194-81.895-92.606-107.802-93.838-52.381-187.049 62.96-112.118 146.809 42.59 47.658 119.5 64.417 186.354 26.302 3.838-2.188 5.176-7.074 2.987-10.912s-7.073-5.177-10.912-2.988c-109.316 62.326-234.224-43.02-174.451-124.937 19.696-26.992 58.362-43.735 100.341-20.303 42.481 23.713 67.072 86.95 90.183 106.14 2.627 2.182 5.533 4.1 8.638 5.702 3.312 1.708 4.375 4.52 4.713 6.044.483 2.209 1.973 4.272 4.192 5.399 1.884.951 15.031 5.578 26.731 8.78 9.325 2.549 11.245 14.827 3.054 19.973-117.384 73.738-214.404 57.527-266.059 17.769-49.1-37.792-65.726-101.066-44.476-169.26 1.641-5.268-2.433-10.65-8.067-10.368-12.409.66-24.282-3.41-32.569-11.187-4.174-3.916-2.686-10.987 2.663-13.074 15.478-6.035 26.665-20.237 27.836-35.341.889-11.457 6.536-50.45 41.865-71.181 31.401-18.425 68.285-11.523 89.268 2.688 20.979 14.208 37.099 42.114 37.052 81.436-.005 4.418 3.577 8.007 7.995 8.01 4.414.002 8-3.575 8.005-7.99.032-26.808-7.155-51.354-20.008-70.329l26.462-16.588c11.738 14.783 29.103 24.898 48.837 27.057v12.653c0 4.418 3.582 8 8 8s8-3.582 8-8c0-21.452.065-20.275-.164-21.388-.571-3.858-3.887-6.822-7.904-6.822-31.142 0-56.478-25.336-56.478-56.479 0-31.142 25.336-56.478 56.478-56.478s56.478 25.336 56.478 56.478c0 4.418 3.582 8 8 8s8-3.582 8-8c.003-39.964-32.511-72.478-72.475-72.478-53.55 0-88.361 56.209-65.297 103.918l-28.047 17.581c-28.876-30.129-80.46-38.446-120.298-15.069-42.018 24.655-48.679 70.331-49.72 83.742-.696 8.969-7.973 17.881-17.697 21.673-16.354 6.375-20.519 27.713-7.798 39.648 8.929 8.378 20.726 13.657 33.427 15.151-45.281 172.01 136.295 285.983 337.203 159.776 19.96-12.538 15.404-42.731-7.342-48.955z"/><path d="m121.746 185v10c0 4.418 3.582 8 8 8s8-3.582 8-8v-10c0-4.418-3.582-8-8-8s-8 3.582-8 8z"/><path d="m228.359 329.3c-3.148-3.1-8.213-3.062-11.313.087-6.134 6.228-9.254 14.76-8.563 23.408 1.623 20.271 21.846 30.315 39.43 21.315 6.409 9.233 16.642 15.001 29.294 15.001 5.319-.001 9.39-1.029 10.764-1.428 4.244-1.229 6.688-5.666 5.458-9.91s-5.67-6.688-9.91-5.457c-1.043.3-10.414 2.791-18.063-2.782-4.397-3.204-6.336-7.641-7.1-10-1.893-5.843-9.437-7.475-13.563-2.88-4.814 5.362-12.321 5.828-16.313 2.897-4.888-3.59-5.975-12.905-.035-18.938 3.101-3.147 3.062-8.213-.086-11.313z"/></g></svg>