<svg id="Layer_1" enable-background="new 0 0 474.999 474.999" height="512" viewBox="0 0 474.999 474.999" width="512" xmlns="http://www.w3.org/2000/svg"><g><path d="m375.499 143.999c13.234 0 24-10.767 24-24v-18c0-13.233-10.766-24-24-24h-110.817c6.253-10.561 14.632-19.977 24.672-27.642 3.512-2.681 4.185-7.701 1.504-11.213-2.681-3.513-7.703-4.186-11.213-1.504-14.19 10.833-25.538 24.711-33.086 40.358h-15.044c2.278-39.851 42.824-61.703 83.489-61.996 2.209 11.268 1.638 22.688-1.706 33.35-1.322 4.216 1.023 8.706 5.239 10.028 4.213 1.321 8.705-1.024 10.027-5.24 4.843-15.442 5.008-32.107.475-48.194-.938-3.327-3.906-5.676-7.36-5.823-52.085-2.201-103.971 26.476-106.2 77.876h-35.993c-16.697-16.138-23.905-39.232-19.485-61.995 13.223.098 26.14 2.384 37.676 6.695 4.139 1.55 8.747-.554 10.294-4.692 1.547-4.139-.554-8.747-4.693-10.294-15.265-5.706-32.539-8.33-49.959-7.59-3.454.147-6.422 2.496-7.36 5.823-7.121 25.274-2.316 51.51 12.454 72.053h-58.914c-13.234 0-24 10.767-24 24v18c0 13.233 10.766 24 24 24h2v280c0 4.418 3.582 8 8 8s8-3.582 8-8v-280h208.742c4.418 0 8-3.582 8-8s-3.582-8-8-8h-226.742c-4.411 0-8-3.589-8-8v-18c0-4.411 3.589-8 8-8h276c4.411 0 8 3.588 8 8v18c0 4.411-3.589 8-8 8h-10c-4.418 0-8 3.582-8 8v323h-112v-49.161c0-4.418-3.582-8-8-8s-8 3.582-8 8v49.161h-36v-70h88v46.839c0 4.418 3.582 8 8 8s8-3.582 8-8v-46.839h6c4.418 0 8-3.582 8-8s-3.582-8-8-8h-132c-4.418 0-8 3.582-8 8s3.582 8 8 8h6v70h-94c-4.418 0-8 3.582-8 8s3.582 8 8 8h308c4.418 0 8-3.582 8-8s-3.582-8-8-8h-18v-315z"/><path d="m163.499 241.999h50c4.418 0 8-3.582 8-8v-50c0-4.418-3.582-8-8-8h-50c-4.418 0-8 3.582-8 8v50c0 4.417 3.582 8 8 8zm8-50h34v34h-34z"/><path d="m261.499 241.999h50c4.418 0 8-3.582 8-8v-50c0-4.418-3.582-8-8-8h-50c-4.418 0-8 3.582-8 8v50c0 4.417 3.582 8 8 8zm8-50h34v34h-34z"/><path d="m155.499 330.999c0 4.418 3.582 8 8 8h50c4.418 0 8-3.582 8-8v-50c0-4.418-3.582-8-8-8h-50c-4.418 0-8 3.582-8 8zm16-42h34v34h-34z"/><path d="m253.499 330.999c0 4.418 3.582 8 8 8h50c4.418 0 8-3.582 8-8v-50c0-4.418-3.582-8-8-8h-50c-4.418 0-8 3.582-8 8zm16-42h34v34h-34z"/></g></svg>