<svg id="Layer_1" enable-background="new 0 0 480 480" height="512" viewBox="0 0 480 480" width="512" xmlns="http://www.w3.org/2000/svg"><g><path d="m463 417.001v-302.916c0-12.867-7.653-24.431-19.499-29.457l-191.001-81.057c-7.944-3.371-17.057-3.371-25.001 0l-191 81.057c-11.845 5.026-19.499 16.59-19.499 29.457v263.162c0 4.418 3.582 8 8 8s8-3.582 8-8v-263.162c0-6.434 3.827-12.215 9.75-14.729l190.998-81.056c3.973-1.686 8.529-1.687 12.503 0l191 81.057c5.922 2.514 9.749 8.295 9.749 14.729v309.872c0 4.541 3.802 8.264 8.5 7.975.166.01.331.025.5.025 4.411 0 8 3.589 8 8v15c0 4.411-3.589 8-8 8h-432c-4.411 0-8-3.589-8-8v-15c0-4.411 3.589-8 8-8h384.678c4.418 0 8-3.582 8-8s-3.582-8-8-8h-384.678c-13.233 0-24 10.767-24 24v15c0 13.233 10.767 24 24 24h432c13.233 0 24-10.767 24-24v-15c0-10.8-7.171-19.954-17-22.957z"/><path d="m315 224.493c4.418 0 8-3.582 8-8v-71.536c0-13.233-10.767-24-24-24h-39.936c-4.418 0-8 3.582-8 8s3.582 8 8 8h39.936c4.411 0 8 3.589 8 8v39h-195.032c-4.418 0-8 3.582-8 8s3.582 8 8 8h195.032v16.536c0 4.418 3.582 8 8 8z"/><path d="m162.628 91.458c-22.87-8.572-48.295 5.276-53.238 29.499h-26.39c-13.234 0-24 10.767-24 24v213c0 13.233 10.766 24 24 24h216c13.233 0 24-10.767 24-24v-36.531h23.55c2.751 15.239 21.404 22 33.322 11.395l34.856-31.014c9.053-8.054 9.012-22.188 0-30.205l-34.856-31.013c-11.977-10.658-30.589-3.746-33.322 11.395h-91.057c-4.418 0-8 3.582-8 8s3.582 8 8 8h98.727c4.418 0 8-3.582 8-8v-4.292c0-3.642 4.287-5.579 7.018-3.149l34.855 31.013c1.884 1.676 1.888 4.619.001 6.299l-34.856 31.014c-2.729 2.43-7.018.491-7.018-3.149v-4.292c0-4.418-3.582-8-8-8h-98.727c-4.418 0-8 3.582-8 8s3.582 8 8 8h51.507v36.531c0 4.411-3.589 8-8 8h-216c-4.411 0-8-3.589-8-8v-213c0-4.411 3.589-8 8-8h26.377c3.724 18.236 19.889 32 39.21 32 4.418 0 8-3.582 8-8s-3.582-8-8-8c-13.243 0-24.018-10.774-24.018-24.018 0-16.829 16.815-28.357 32.444-22.499 4.137 1.55 8.748-.547 10.299-4.684 1.55-4.139-.546-8.749-4.684-10.3z"/><path d="m259.461 91.459c-22.876-8.572-48.3 5.273-53.243 29.498h-51.411c-4.418 0-8 3.582-8 8s3.582 8 8 8h51.398c3.724 18.236 19.889 32 39.21 32 4.418 0 8-3.582 8-8s-3.582-8-8-8c-13.237 0-23.82-10.767-24.017-24.001-.234-15.754 16.141-28.631 32.447-22.515 4.138 1.549 8.748-.545 10.3-4.683 1.549-4.137-.547-8.747-4.684-10.299z"/><path d="m139.654 327.674c3.722 2.408 8.671 1.326 11.063-2.371l44-68c2.4-3.709 1.339-8.662-2.371-11.063-3.708-2.4-8.663-1.339-11.063 2.371l-44 68c-2.4 3.709-1.339 8.662 2.371 11.063z"/><circle cx="190" cy="316.957" r="12"/><circle cx="142" cy="256.957" r="12"/></g></svg>