<svg id="Layer_1" enable-background="new 0 0 479.964 479.964" height="512" viewBox="0 0 479.964 479.964" width="512" xmlns="http://www.w3.org/2000/svg"><g><path d="m470.861 265.924-6.761-5.354c-3.462-2.742-8.494-2.16-11.238 1.305-2.743 3.464-2.159 8.495 1.305 11.238l6.76 5.354c3.127 2.478 3.982 6.952 1.989 10.407l-6.188 10.723c-1.991 3.45-6.285 4.946-9.988 3.476l-8.05-3.194c-2.937-1.165-6.281-.495-8.541 1.712-9.37 9.151-20.957 15.851-33.507 19.373-3.04.854-5.294 3.415-5.753 6.539l-1.259 8.564c-.579 3.942-4.021 6.916-8.007 6.916h-12.365c-3.985 0-7.428-2.974-8.007-6.916l-1.259-8.564c-.459-3.124-2.713-5.686-5.753-6.539-12.55-3.522-24.137-10.222-33.509-19.373-2.258-2.205-5.602-2.879-8.54-1.712l-8.048 3.193c-3.701 1.473-7.997-.023-9.989-3.475l-6.186-10.72c-1.994-3.457-1.139-7.934 1.989-10.411l6.758-5.353c2.473-1.958 3.563-5.186 2.787-8.242-3.225-12.684-3.225-26.093 0-38.777.776-3.057-.314-6.284-2.787-8.242l-6.76-5.354c-3.127-2.478-3.982-6.952-1.989-10.407l6.188-10.723c1.991-3.451 6.285-4.945 9.987-3.476l8.049 3.194c2.936 1.165 6.281.495 8.54-1.712 9.372-9.151 20.959-15.851 33.509-19.373 3.04-.854 5.294-3.415 5.753-6.539l1.259-8.564c.579-3.942 4.021-6.916 8.007-6.916h12.356c3.99 0 7.437 2.977 8.017 6.924l1.258 8.557c.459 3.124 2.713 5.687 5.753 6.539 12.55 3.522 24.137 10.222 33.507 19.373 2.26 2.206 5.603 2.879 8.541 1.712l8.049-3.193c3.705-1.473 7.997.023 9.989 3.475l6.187 10.723c1.994 3.456 1.14 7.93-1.987 10.406l-6.761 5.354c-3.464 2.743-4.048 7.774-1.305 11.238 2.743 3.465 7.775 4.047 11.238 1.305l6.761-5.354c9.3-7.366 11.841-20.669 5.912-30.945l-6.188-10.723c-5.931-10.277-18.718-14.728-29.748-10.351l-3.373 1.339c-9.215-8.044-19.942-14.245-31.477-18.199l-.526-3.582c-1.727-11.742-11.979-20.597-23.847-20.597h-12.356c-11.864 0-22.111 8.852-23.837 20.59l-.527 3.59c-11.534 3.952-22.261 10.154-31.477 18.197l-3.374-1.339c-11.028-4.376-23.818.073-29.747 10.352l-6.188 10.723c-5.928 10.275-3.386 23.578 5.913 30.945l2.823 2.236c-2.345 12.001-2.345 24.413 0 36.412l-2.821 2.235c-9.301 7.367-11.843 20.673-5.913 30.949 6.811 11.803 6.513 11.433 7.89 13.237v131.872h-111.999v-61.129c0-4.418-3.582-8-8-8s-8 3.582-8 8v61.129h-36v-89h88v58c0 4.418 3.582 8 8 8s8-3.582 8-8v-58h6c4.418 0 8-3.582 8-8s-3.582-8-8-8h-132c-4.418 0-8 3.582-8 8s3.582 8 8 8h6v89h-60v-362c0-4.418-3.582-8-8-8h-10c-4.411 0-8-3.589-8-8v-18c0-4.411 3.589-8 8-8h276c4.411 0 8 3.589 8 8v18c0 4.411-3.589 8-8 8h-223.129c-4.418 0-8 3.582-8 8s3.582 8 8 8h205.129v57.258c0 4.418 3.582 8 8 8s8-3.582 8-8v-57.258h2c13.233 0 24-10.767 24-24v-18c0-13.233-10.767-24-24-24h-276c-13.233 0-24 10.767-24 24v18c0 13.233 10.767 24 24 24h2v354h-18c-4.418 0-8 3.582-8 8s3.582 8 8 8h308c4.418 0 8-3.582 8-8s-3.582-8-8-8h-18v-122.603c6.949.945 11.258-1.124 15.418-2.774 9.216 8.043 19.942 14.245 31.477 18.197l.527 3.59c1.726 11.738 11.973 20.59 23.837 20.59h12.365c11.864 0 22.111-8.852 23.837-20.59l.527-3.59c11.534-3.953 22.262-10.154 31.477-18.198l3.374 1.34c11.026 4.374 23.817-.073 29.747-10.352l6.188-10.723c5.928-10.275 3.386-23.578-5.913-30.945z"/><path d="m375.032 299.982c4.418 0 8-3.582 8-8v-5.458c12.277-2.918 21.298-12.369 21.298-23.554 0-18.654-16.665-22.067-27.693-24.325-13.047-2.672-14.902-4.245-14.902-8.651 0-4.016 5.461-8.489 13.298-8.489 4.993 0 9.705 1.956 12.003 4.983 2.673 3.521 7.692 4.206 11.209 1.535 3.52-2.672 4.206-7.69 1.535-11.209-3.914-5.156-9.886-8.789-16.747-10.389v-5.443c0-4.418-3.582-8-8-8s-8 3.582-8 8v5.458c-12.277 2.918-21.298 12.369-21.298 23.554 0 18.654 16.665 22.067 27.693 24.325 13.047 2.672 14.902 4.245 14.902 8.651 0 4.016-5.461 8.489-13.298 8.489-4.993 0-9.705-1.956-12.003-4.983-2.672-3.52-7.692-4.206-11.209-1.535-3.52 2.672-4.206 7.69-1.535 11.209 3.914 5.156 9.886 8.788 16.747 10.389v5.443c0 4.418 3.582 8 8 8z"/><path d="m146 133.982c0-4.418-3.582-8-8-8h-50c-4.418 0-8 3.582-8 8v50c0 4.418 3.582 8 8 8h50c4.418 0 8-3.582 8-8zm-16 42h-34v-34h34z"/><path d="m244 133.982c0-4.418-3.582-8-8-8h-50c-4.418 0-8 3.582-8 8v50c0 4.418 3.582 8 8 8h50c4.418 0 8-3.582 8-8zm-16 42h-34v-34h34z"/><path d="m138 232.982h-50c-4.418 0-8 3.582-8 8v50c0 4.418 3.582 8 8 8h50c4.418 0 8-3.582 8-8v-50c0-4.418-3.582-8-8-8zm-8 50h-34v-34h34z"/><path d="m236 232.982h-50c-4.418 0-8 3.582-8 8v50c0 4.418 3.582 8 8 8h50c4.418 0 8-3.582 8-8v-50c0-4.418-3.582-8-8-8zm-8 50h-34v-34h34z"/></g></svg>