<svg id="Layer_1" enable-background="new 0 0 480.017 480.017" height="512" viewBox="0 0 480.017 480.017" width="512" xmlns="http://www.w3.org/2000/svg"><g><path d="m146 134.009c0-4.418-3.582-8-8-8h-50c-4.418 0-8 3.582-8 8v50c0 4.418 3.582 8 8 8h50c4.418 0 8-3.582 8-8zm-16 42h-34v-34h34z"/><path d="m186 192.009c4.418 0 8-3.582 8-8v-42h42c4.418 0 8-3.582 8-8s-3.582-8-8-8h-50c-4.418 0-8 3.582-8 8v50c0 4.417 3.582 8 8 8z"/><path d="m138 233.009h-50c-4.418 0-8 3.582-8 8v50c0 4.418 3.582 8 8 8h50c4.418 0 8-3.582 8-8v-50c0-4.418-3.582-8-8-8zm-8 50h-34v-34h34z"/><path d="m479.971 236.39c-.115-4.416-3.755-7.902-8.208-7.786-4.416.116-7.902 3.791-7.786 8.207 1.898 72.118-61.7 128.574-133.091 117.928-39.971-5.962-72.456-31.622-88.49-66.661-.119-.303-.25-.6-.404-.883-21.367-47.75-8.274-106.905 36.983-140.415 47.927-35.485 111.38-27.819 150.19 10.33l-9.963-.35c-4.425-.129-8.121 3.299-8.276 7.714-.155 4.416 3.299 8.121 7.714 8.276 30.527 1.072 28.757 1.044 29.635.939 3.99-.488 6.852-3.777 7.025-7.573l1.214-28.401c.188-4.415-3.237-8.146-7.651-8.335-4.44-.195-8.146 3.237-8.335 7.652l-.361 8.455c-38.02-37.22-94.473-47.307-142.165-27.697v-29.781h2c13.233 0 24-10.767 24-24v-18c0-13.233-10.767-24-24-24h-276.002c-13.233 0-24 10.767-24 24v18c0 13.233 10.767 24 24 24h2v354h-18c-4.418 0-8 3.582-8 8s3.582 8 8 8h308c4.418 0 8-3.582 8-8s-3.582-8-8-8h-18v-44.807c0-4.418-3.582-8-8-8s-8 3.582-8 8v44.807h-112v-63.451c0-4.418-3.582-8-8-8s-8 3.582-8 8v63.451h-36v-89h88v60.387c0 4.418 3.582 8 8 8s8-3.582 8-8v-60.387h6c4.418 0 8-3.582 8-8s-3.582-8-8-8h-132c-4.418 0-8 3.582-8 8s3.582 8 8 8h6v89h-60v-354h207.774c4.418 0 8-3.582 8-8s-3.582-8-8-8h-225.774c-4.411 0-8-3.589-8-8v-18c0-4.411 3.589-8 8-8h276c4.411 0 8 3.589 8 8v18c0 4.411-3.589 8-8 8h-10c-4.418 0-8 3.582-8 8v45.675c-56.892 32.993-78.681 99.981-58.858 157.325h-29.142v-42c0-4.418-3.582-8-8-8s-8 3.582-8 8v50c0 4.418 3.582 8 8 8h43.882c39.103 77.869 140.815 97.164 205.601 39.824 29.303-25.936 45.519-63.275 44.488-102.443z"/><path d="m265 256.594v7.415h-4c-4.418 0-8 3.582-8 8s3.582 8 8 8h174c4.418 0 8-3.582 8-8s-3.582-8-8-8h-4v-7.415c0-40.128-28.904-73.65-67.077-81.064.898-9.453-6.561-17.521-15.923-17.521-9.345 0-16.823 8.05-15.923 17.521-38.173 7.413-67.077 40.935-67.077 81.064zm83-66.585c37.21 0 67 30.097 67 66.585v7.415h-134v-7.415c0-36.51 29.82-66.585 67-66.585z"/></g></svg>