<svg id="Layer_1" enable-background="new 0 0 480 480" height="512" viewBox="0 0 480 480" width="512" xmlns="http://www.w3.org/2000/svg"><g><path d="m448 268h-8c-4.418 0-8 3.582-8 8s3.582 8 8 8h8c8.822 0 16 7.178 16 16v112c0 8.822-7.178 16-16 16h-16c-8.822 0-16-7.178-16-16v-148c0-17.645-14.355-32-32-32h-16c-17.645 0-32 14.355-32 32v58h-200c-4.418 0-8 3.582-8 8v118c0 8.822-7.178 16-16 16h-16c-8.822 0-16-7.178-16-16v-184c0-8.822 7.178-16 16-16h16c8.822 0 16 7.178 16 16v27.71c0 4.418 3.582 8 8 8s8-3.582 8-8v-27.71c0-17.645-14.355-32-32-32h-16c-17.645 0-32 14.355-32 32v8.305c-4.711-2.732-10.173-4.305-16-4.305h-16c-17.645 0-32 14.355-32 32v112c0 17.645 14.355 32 32 32h6.161c4.418 0 8-3.582 8-8s-3.582-8-8-8h-6.161c-8.822 0-16-7.178-16-16v-112c0-8.822 7.178-16 16-16h16c8.822 0 16 7.178 16 16v148c0 17.645 14.355 32 32 32h16c17.645 0 32-14.355 32-32v-58h163.548c4.418 0 8-3.582 8-8s-3.582-8-8-8h-163.548v-36h192v110c0 17.645 14.355 32 32 32h16c8.192 0 15.985-3.093 21.944-8.71 3.215-3.03 3.365-8.093.335-11.309-3.031-3.216-8.094-3.365-11.309-.334-2.978 2.807-6.874 4.353-10.97 4.353h-16c-8.822 0-16-7.178-16-16v-184c0-8.822 7.178-16 16-16h16c8.822 0 16 7.178 16 16v148c0 17.645 14.355 32 32 32h16c17.645 0 32-14.355 32-32v-112c0-17.645-14.355-32-32-32z"/><path d="m79 196h29c17.645 0 32-14.355 32-32v-29.165c52.632 7.034 114.712 7.854 167.888 3.449 4.403-.364 7.677-4.229 7.312-8.633-.365-4.402-4.225-7.673-8.633-7.313-55.252 4.578-116.902 3.196-166.567-3.646v-41.385c60.785-8.362 139.215-8.362 200 0v86.693c0 17.645 14.355 32 32 32h29c17.645 0 32-14.355 32-32v-132c0-17.645-14.355-32-32-32h-29c-16.248 0-29.913 12.157-31.785 28.278-.509 4.389 2.635 8.359 7.024 8.869 4.383.521 8.359-2.635 8.87-7.023.934-8.052 7.766-14.124 15.891-14.124h29c8.822 0 16 7.178 16 16v132c0 8.822-7.178 16-16 16h-29c-8.822 0-16-7.178-16-16v-93.625c0-4.008-2.995-7.346-6.803-7.91-65.314-9.887-153.08-9.887-218.395 0-3.425.507-6.285 3.282-6.735 6.922-.1.817-.067-5.643-.067 94.613 0 8.822-7.178 16-16 16h-29c-8.822 0-16-7.178-16-16v-132c0-8.822 7.178-16 16-16h29c8.395 0 15.407 6.551 15.964 14.913.293 4.408 4.103 7.744 8.514 7.451 4.409-.294 7.745-4.105 7.451-8.514-1.115-16.738-15.139-29.85-31.929-29.85h-29c-17.645 0-32 14.355-32 32v132c0 17.645 14.355 32 32 32z"/></g></svg>