<svg id="Layer_1" enable-background="new 0 0 480 480" height="512" viewBox="0 0 480 480" width="512" xmlns="http://www.w3.org/2000/svg"><g><path d="m216 317c4.418 0 8-3.582 8-8v-50c0-4.418-3.582-8-8-8h-60c-4.418 0-8 3.582-8 8v50c0 4.418 3.582 8 8 8zm-52-50h44v34h-44z"/><path d="m324 317c4.418 0 8-3.582 8-8v-50c0-4.418-3.582-8-8-8h-60c-4.418 0-8 3.582-8 8v50c0 4.418 3.582 8 8 8zm-52-50h44v34h-44z"/><path d="m145 74h190c4.418 0 8-3.582 8-8s-3.582-8-8-8h-190c-4.418 0-8 3.582-8 8s3.582 8 8 8z"/><path d="m444 440.484c4.418 0 8-3.582 8-8v-135.824c11.336-1.911 20-11.79 20-23.66v-18c0-13.233-10.766-24-24-24h-62v-12h2c13.234 0 24-10.767 24-24v-18c0-13.233-10.766-24-24-24h-38v-4.903c0-4.418-3.582-8-8-8s-8 3.582-8 8v4.903h-188v-21h236c13.234 0 24-10.767 24-24v-84c0-13.233-10.766-24-24-24h-284c-13.234 0-24 10.767-24 24v84c0 13.233 10.766 24 24 24 4.418 0 8-3.582 8-8s-3.582-8-8-8c-4.411 0-8-3.589-8-8v-84c0-4.411 3.589-8 8-8h284c4.411 0 8 3.589 8 8v84c0 4.411-3.589 8-8 8h-244c-4.418 0-8 3.582-8 8v29h-38c-13.234 0-24 10.767-24 24v18c0 13.233 10.766 24 24 24h2v62h-62c-4.411 0-8-3.589-8-8v-18c0-4.411 3.589-8 8-8h27c4.418 0 8-3.582 8-8s-3.582-8-8-8h-27c-13.234 0-24 10.767-24 24v18c0 13.233 10.766 24 24 24h62v135.161c0 4.418 3.582 8 8 8s8-3.582 8-8v-213.161h227.258c4.418 0 8-3.582 8-8s-3.582-8-8-8h-245.258c-4.411 0-8-3.589-8-8v-18c0-4.411 3.589-8 8-8h296c4.411 0 8 3.589 8 8v18c0 4.411-3.589 8-8 8h-10c-4.418 0-8 3.582-8 8v253h-122v-62.871c0-4.418-3.582-8-8-8s-8 3.582-8 8v62.871h-36v-90h88v64.354c0 4.418 3.582 8 8 8s8-3.582 8-8v-64.354h6c4.418 0 8-3.582 8-8s-3.582-8-8-8h-132c-4.418 0-8 3.582-8 8s3.582 8 8 8h6v90h-136v-132.161c0-4.418-3.582-8-8-8s-8 3.582-8 8v132.161h-10c-4.418 0-8 3.582-8 8s3.582 8 8 8h444c4.418 0 8-3.582 8-8s-3.582-8-8-8h-76v-217h62c4.411 0 8 3.589 8 8v18c0 4.411-3.589 8-8 8h-33.064c-4.418 0-8 3.582-8 8s3.582 8 8 8h21.064v135.484c0 4.418 3.582 8 8 8z"/></g></svg>