<svg id="Layer_1" enable-background="new 0 0 479.996 479.996" height="512" viewBox="0 0 479.996 479.996" width="512" xmlns="http://www.w3.org/2000/svg"><g><path d="m239.998 0c-116.346 0-211 94.654-211 211 0 95.11 63.525 178.322 154.867 203.45l35.522 54.394c9.718 14.88 31.516 14.858 41.221 0l35.521-54.394c91.343-25.128 154.869-108.34 154.869-203.45 0-116.346-94.654-211-211-211zm49.1 399.768c-1.929.5-3.602 1.702-4.69 3.37l-37.196 56.957c-3.398 5.205-11.013 5.228-14.428.001l-37.197-56.958c-1.089-1.668-2.762-2.87-4.69-3.37-85.903-22.278-145.899-99.903-145.899-188.768 0-107.523 87.477-195 195-195s195 87.477 195 195c0 88.866-59.996 166.49-145.9 188.768z"/><path d="m239.998 43c-92.636 0-168 75.364-168 168s75.364 168 168 168c4.418 0 8-3.582 8-8s-3.582-8-8-8c-83.813 0-152-68.187-152-152s68.187-152 152-152 152 68.187 152 152c0 67.457-43.327 125.921-107.814 145.48-4.228 1.282-6.616 5.749-5.333 9.978 1.281 4.228 5.745 6.619 9.978 5.333 67.836-20.574 119.17-83.836 119.17-160.791-.001-92.636-75.365-168-168.001-168z"/><path d="m267.704 243.179h-55.412c-4.418 0-8 3.582-8 8v20.789c0 4.418 3.582 8 8 8s8-3.582 8-8v-12.789h39.412v41.821h-79.706v-170h120v178c0 4.418 3.582 8 8 8s8-3.582 8-8v-178h5c4.418 0 8-3.582 8-8s-3.582-8-8-8h-162c-4.418 0-8 3.582-8 8s3.582 8 8 8h5v178c0 4.418 3.582 8 8 8h95.706c4.418 0 8-3.582 8-8v-57.821c0-4.418-3.582-8-8-8z"/><path d="m271.998 158h-64c-4.418 0-8 3.582-8 8s3.582 8 8 8h64c4.418 0 8-3.582 8-8s-3.582-8-8-8z"/><path d="m213.331 220h53.333c4.418 0 8-3.582 8-8s-3.582-8-8-8h-53.333c-4.418 0-8 3.582-8 8s3.582 8 8 8z"/></g></svg>