<svg id="Layer_1" enable-background="new 0 0 480 480" height="512" viewBox="0 0 480 480" width="512" xmlns="http://www.w3.org/2000/svg"><g><circle cx="396" cy="290" r="12"/><path d="m146 134c0-4.418-3.582-8-8-8h-50c-4.418 0-8 3.582-8 8v50c0 4.418 3.582 8 8 8h50c4.418 0 8-3.582 8-8zm-16 42h-34v-34h34z"/><path d="m244 134c0-4.418-3.582-8-8-8h-50c-4.418 0-8 3.582-8 8v50c0 4.418 3.582 8 8 8h50c4.418 0 8-3.582 8-8zm-16 42h-34v-34h34z"/><path d="m138 233h-50c-4.418 0-8 3.582-8 8v50c0 4.418 3.582 8 8 8h50c4.418 0 8-3.582 8-8v-50c0-4.418-3.582-8-8-8zm-8 50h-34v-34h34z"/><path d="m236 233h-50c-4.418 0-8 3.582-8 8v50c0 4.418 3.582 8 8 8h50c4.418 0 8-3.582 8-8v-50c0-4.418-3.582-8-8-8zm-8 50h-34v-34h34z"/><path d="m456 101h-31.674c-8.911 0-17.046 5.014-21.229 13.083-13.092 25.246-49.118 25.215-62.192 0-4.185-8.069-12.32-13.083-21.231-13.083h-31.674c-13.233 0-24 10.767-24 24v270c0 11.162 7.66 20.569 18 23.24v23.76h-112v-61.226c0-4.418-3.582-8-8-8s-8 3.582-8 8v61.226h-36v-89h88v65c0 4.418 3.582 8 8 8s8-3.582 8-8v-65h6c4.418 0 8-3.582 8-8s-3.582-8-8-8h-132c-4.418 0-8 3.582-8 8s3.582 8 8 8h6v89h-60v-362c0-4.418-3.582-8-8-8h-10c-4.411 0-8-3.589-8-8v-18c0-4.411 3.589-8 8-8h276c4.411 0 8 3.589 8 8v18c0 4.411-3.589 8-8 8h-224.29c-4.418 0-8 3.582-8 8s3.582 8 8 8h224.29c13.233 0 24-10.767 24-24v-18c0-13.233-10.767-24-24-24h-276c-13.233 0-24 10.767-24 24v18c0 13.233 10.767 24 24 24h2v354h-18c-4.418 0-8 3.582-8 8s3.582 8 8 8h308c4.418 0 8-3.582 8-8s-3.582-8-8-8h-18v-31c0-4.418-3.582-8-8-8h-2c-4.411 0-8-3.589-8-8v-270c0-4.411 3.589-8 8-8h31.674c2.911 0 5.604 1.704 7.026 4.448 19.011 36.666 71.581 36.678 90.601 0 1.422-2.744 4.114-4.448 7.025-4.448h31.674c4.411 0 8 3.589 8 8v270c0 4.411-3.589 8-8 8h-31.673c-2.911 0-5.604-1.705-7.026-4.448-19.013-36.666-71.583-36.677-90.601 0-2.034 3.922-.503 8.751 3.419 10.784 3.922 2.035 8.752.504 10.784-3.419 13.092-25.247 49.12-25.215 62.193.001 4.185 8.069 12.32 13.082 21.23 13.082h31.674c13.233 0 24-10.767 24-24v-270c0-13.233-10.767-24-24-24z"/><path d="m398.346 219.283c-3.708-2.4-8.662-1.339-11.063 2.371l-44 68c-3.468 5.358.453 12.347 6.709 12.347 2.623 0 5.193-1.289 6.725-3.655l44-68c2.4-3.709 1.339-8.662-2.371-11.063z"/><circle cx="348" cy="230" r="12"/></g></svg>