<svg id="Layer_1" enable-background="new 0 0 490.637 490.637" height="512" viewBox="0 0 490.637 490.637" width="512" xmlns="http://www.w3.org/2000/svg"><g><path d="m282.204 365.373-43.101-14.86c-9.711-3.35-17.83-9.65-23.482-18.223-2.877-4.367-9.106-4.832-12.607-.969l-28.086 30.997h-25.825l-24.053-26.882c2.828-5.462 4.86-11.367 5.97-17.544 68.162 20.65 137.98-30.405 137.98-102.448v-56.125c0-3.576-2.374-6.719-5.814-7.695-17.826-5.063-31.933-18.233-38.703-36.135-1.894-5.01-8.097-6.782-12.349-3.52-42.362 32.468-94.949 46.469-148.082 39.419-4.776-.634-9.052 3.082-9.052 7.931v56.125c0 28.785 11.268 55.792 31.727 76.045 3.14 3.108 8.205 3.083 11.313-.058 3.108-3.14 3.083-8.205-.058-11.313-17.399-17.225-26.982-40.194-26.982-64.674v-47.182c50.821 4.64 100.913-8.513 142.796-37.693 8.605 16.058 22.373 28.22 39.204 34.534v50.341c0 66.312-67.492 108.368-125.927 84.058-5.26-2.189-11.073 1.683-11.073 7.387 0 19.679-12.499 37.21-31.104 43.625l-43.096 14.858c-25.004 8.665-41.8 32.251-41.8 58.72v53.227c0 4.418 3.582 8 8 8s8-3.582 8-8v-53.227c0-19.679 12.499-37.213 31.103-43.627 0 0 45.203-15.626 46.277-16.065l10.808 49.053c1.437 6.522 9.811 8.524 14.03 3.312l12-14.823c2.78-3.434 2.25-8.471-1.185-11.251-3.433-2.781-8.472-2.249-11.251 1.185l-1.545 1.908-8.323-37.775c2.779-2.155 5.36-4.531 7.718-7.102l23.931 26.746c1.518 1.696 3.686 2.666 5.962 2.666h29.133l31.124 38.446c4.196 5.184 12.587 3.24 14.03-3.312l5.398-24.498c.951-4.314-1.776-8.583-6.091-9.534-4.313-.949-8.583 1.776-9.534 6.091l-1.823 8.271-18.758-23.171 19.519-21.542c6.933 7.479 15.681 13.229 25.363 16.567l25.114 8.66v103.022c0 4.418 3.582 8 8 8s8-3.582 8-8v-97.505s1.861.641 1.897.654c18.585 6.468 31.103 23.945 31.103 43.624v53.227c0 4.418 3.582 8 8 8s8-3.582 8-8v-53.227c0-26.47-16.792-50.054-41.796-58.719z"/><path d="m56.252 298.032c4.365.64 8.434-2.386 9.074-6.758.64-4.371-2.386-8.435-6.758-9.074-7.735-1.132-13.569-7.931-13.569-15.815v-153.56c0-50.456 41.047-91.506 91.501-91.506h51c50.454 0 91.501 41.05 91.501 91.506v153.56c0 7.885-5.834 14.684-13.569 15.815-4.372.64-7.397 4.703-6.758 9.074.636 4.342 4.662 7.394 9.074 6.758 15.537-2.274 27.253-15.88 27.253-31.647v-153.56c0-59.279-48.225-107.506-107.501-107.506h-51c-59.276 0-107.501 48.227-107.501 107.506v153.56c0 15.767 11.716 29.372 27.253 31.647z"/><path d="m229.258 431.319h-164.258v-19.587c0-4.418-3.582-8-8-8s-8 3.582-8 8v65.587c0 4.418 3.582 8 8 8s8-3.582 8-8v-30h164.258c4.418 0 8-3.582 8-8s-3.582-8-8-8z"/><path d="m485.42 224.788c-8.194-10.244-23.111-11.818-33.297-3.616-3.607 2.904-7.024 5.971-10.256 9.187.523-2.407 1.09-4.803 1.726-7.18 4.915-18.372-10.732-35.651-29.435-33.016-7.064 1.002-13.315 4.703-17.6 10.422-3.512 4.688-6.778 9.611-9.709 14.631-2.228 3.815-.939 8.715 2.876 10.942 3.818 2.229 8.715.938 10.942-2.876 2.623-4.494 5.549-8.903 8.696-13.104 1.716-2.29 4.216-3.772 7.04-4.173 7.44-1.062 13.652 5.865 11.731 13.039-3.147 11.764-5.028 23.896-5.631 36.097-1.191 1.998-2.333 4.028-3.416 6.097-2.049 3.914-.537 8.748 3.378 10.798s8.748.537 10.798-3.378c7.063-13.492 16.783-25.275 28.893-35.023 1.606-1.294 3.627-1.879 5.659-1.659 5.4.591 8.468 6.54 5.871 11.165-8.583 15.293-14.29 31.877-17.042 49.415-2.588-.34 1.384-.237-61.42-.237-6.181-27.886-21.75-52.953-44.348-71.146-10.199-8.21-25.111-6.62-33.297 3.615-6.04 7.548-6.912 17.826-2.221 26.186 3.141 5.596 5.889 11.475 8.168 17.474 1.569 4.13 6.191 6.207 10.319 4.638 4.13-1.569 6.207-6.189 4.638-10.319-2.56-6.737-5.646-13.34-9.173-19.623-1.484-2.645-1.186-5.926.762-8.359 2.618-3.273 7.43-3.836 10.77-1.147 18.816 15.149 32.056 35.73 37.936 58.684h-28.915c-14.813 0-26.865 12.052-26.865 26.865 0 35.244 18.787 62.735 50 73.94v84.195c0 4.418 3.582 8 8 8s8-3.582 8-8v-80.199c7.954 1.171 15.838 1.241 24 .151v80.048c0 4.418 3.582 8 8 8s8-3.582 8-8c0-95.812.025-89.967-.068-90.711-.585-4.695-5.113-7.879-9.756-6.793-22.564 5.283-43.386.189-57.862-11.064-14.596-11.351-22.312-28.491-22.312-49.57 0-5.991 4.874-10.865 10.865-10.865h103.27c5.991 0 10.865 4.874 10.865 10.865 0 13.537-2.644 24.349-8.319 34.027-2.235 3.811-.958 8.712 2.854 10.947 3.812 2.236 8.712.958 10.947-2.854 7.078-12.066 10.518-25.845 10.518-42.12 0-7.579-3.16-14.43-8.225-19.319 2.115-17.449 7.439-33.88 15.866-48.893 4.69-8.358 3.818-18.637-2.221-26.184z"/><path d="m137 182.319c-4.418 0-8 3.582-8 8v14c0 4.418 3.582 8 8 8s8-3.582 8-8v-14c0-4.418-3.582-8-8-8z"/><path d="m187 212.319c4.418 0 8-3.582 8-8v-14c0-4.418-3.582-8-8-8s-8 3.582-8 8v14c0 4.418 3.582 8 8 8z"/><path d="m148.565 250.753c-3.125-3.123-8.189-3.123-11.314 0-3.124 3.125-3.124 8.189 0 11.314 13.645 13.645 35.851 13.647 49.498 0 3.124-3.125 3.124-8.189 0-11.314-3.125-3.123-8.189-3.123-11.314 0-7.409 7.408-19.461 7.408-26.87 0z"/></g></svg>