<svg id="Layer_1" enable-background="new 0 0 480 480" height="512" viewBox="0 0 480 480" width="512" xmlns="http://www.w3.org/2000/svg"><g><circle cx="77" cy="50" r="16"/><circle cx="195" cy="50" r="16"/><circle cx="136" cy="50" r="16"/><path d="m333 58c4.418 0 8-3.582 8-8s-3.582-8-8-8h-71c-4.418 0-8 3.582-8 8s3.582 8 8 8z"/><path d="m268.602 192.144c-3.876-2.12-8.737-.697-10.859 3.177-21.318 38.957-22.321 86.16-2.764 126.028-15.336 14.458-35.803 22.651-56.979 22.651-46.516 0-84.778-38.659-82.927-86.353 33.049-9.894 55.174 5.456 87.701 14.56 4.248 1.191 8.668-1.289 9.86-5.548 1.191-4.255-1.293-8.669-5.548-9.86-30.262-8.467-54.61-24.092-89.568-16.321 11.259-44.883 59.767-74.375 107.449-58.001 4.179 1.438 8.73-.789 10.165-4.969 1.435-4.179-.79-8.729-4.968-10.164-64.154-22.028-131.164 25.567-131.164 93.656 0 54.589 44.411 99 99 99 27.473 0 53.945-11.563 72.628-31.724 2.339-2.523 2.802-6.26 1.15-9.278-19.578-35.774-19.578-80.222 0-115.996 2.121-3.876.699-8.737-3.176-10.858z"/><path d="m440.089 295.695c-3.411-2.809-8.452-2.322-11.261 1.088-2.81 3.41-2.323 8.452 1.087 11.262 20.391 16.798 32.085 41.567 32.085 67.955 0 48.523-39.477 88-88 88s-88-39.477-88-88c0-50.484 43.295-93.614 99.088-87.313 4.463.505 8.322-2.72 8.851-6.954.09-.727.061 8.425.061-249.733 0-17.645-14.355-32-32-32h-328c-17.645 0-32 14.355-32 32v376c0 17.645 14.355 32 32 32h213.129c4.418 0 8-3.582 8-8s-3.582-8-8-8h-213.129c-8.822 0-16-7.178-16-16v-376c0-8.822 7.178-16 16-16h328c8.822 0 16 7.178 16 16v53h-323.258c-4.418 0-8 3.582-8 8s3.582 8 8 8h323.258v171.083c-51.783-1.951-96.761 34.304-106.222 84.794-21.049 16.207-47.121 25.123-73.778 25.123-66.72 0-121-54.28-121-121s54.28-121 121-121c61.653 0 113.343 46.127 120.233 107.295.495 4.391 4.452 7.56 8.845 7.054 4.391-.494 7.549-4.454 7.054-8.845-7.802-69.269-66.327-121.504-136.132-121.504-75.542 0-137 61.458-137 137s61.458 137 137 137c25.479 0 50.5-7.18 72.02-20.458.828 56.637 47.15 102.458 103.98 102.458 57.346 0 104-46.654 104-104 0-31.186-13.818-60.455-37.911-80.305z"/><path d="m351.79 378.512c-3.05-3.197-8.114-3.317-11.311-.27-3.198 3.049-3.318 8.112-.27 11.311l20.484 21.484c3.044 3.193 8.212 3.372 11.447.137l42.516-42.517c3.125-3.125 3.125-8.19 0-11.314-3.124-3.123-8.189-3.123-11.313 0l-36.723 36.724z"/></g></svg>