<svg id="Layer_1" enable-background="new 0 0 480.969 480.969" height="512" viewBox="0 0 480.969 480.969" width="512" xmlns="http://www.w3.org/2000/svg"><g><path d="m6.983 296.581 33.454 29.976c11.833 10.604 30.259 3.889 33.155-11.115h80.376c4.418 0 8-3.582 8-8s-3.582-8-8-8h-88c-4.418 0-8 3.582-8 8v4.031c0 3.65-4.19 5.556-6.855 3.168l-33.453-29.976c-2.217-1.987-2.22-5.459 0-7.448l33.454-29.975c2.665-2.385 6.855-.482 6.855 3.168v4.031c0 4.418 3.582 8 8 8h88c4.418 0 8-3.582 8-8s-3.582-8-8-8h-29v-101c0-4.411 3.589-8 8-8h26.377c3.724 18.236 19.889 32 39.21 32 4.418 0 8-3.582 8-8s-3.582-8-8-8c-13.243 0-24.018-10.774-24.018-24.018 0-16.829 16.814-28.355 32.444-22.499 4.136 1.55 8.748-.546 10.299-4.684 1.55-4.138-.546-8.748-4.684-10.299-22.869-8.572-48.295 5.276-53.238 29.499h-26.39c-13.233 0-24 10.767-24 24v101h-35.376c-2.901-15.029-21.353-21.69-33.155-11.115l-6.468 5.795v-126.551c0-6.434 3.827-12.215 9.75-14.729l190.999-81.057c3.972-1.686 8.53-1.687 12.502 0l191 81.057c5.923 2.514 9.75 8.295 9.75 14.729v81.485c0 4.418 3.582 8 8 8s8-3.582 8-8v-81.485c0-12.867-7.654-24.431-19.499-29.457l-191.003-81.056c-7.944-3.371-17.057-3.371-25.001 0l-191 81.057c-11.845 5.026-19.499 16.59-19.499 29.457v140.888l-10.986 9.843c-9.28 8.316-9.341 22.91 0 31.28z"/><path d="m463.969 417.485v-111.957l9.986-8.947c9.279-8.315 9.343-22.909 0-31.28l-33.454-29.975c-11.828-10.598-30.26-3.884-33.155 11.115h-80.376c-4.418 0-8 3.582-8 8s3.582 8 8 8h88c4.418 0 8-3.582 8-8v-4.031c0-3.66 4.197-5.547 6.855-3.168l33.454 29.975c2.217 1.987 2.22 5.459 0 7.448l-33.454 29.976c-2.664 2.386-6.855.482-6.855-3.168v-4.031c0-4.418-3.582-8-8-8h-88c-4.418 0-8 3.582-8 8s3.582 8 8 8h30v33c0 4.411-3.589 8-8 8h-216c-4.411 0-8-3.589-8-8 0-4.418-3.582-8-8-8s-8 3.582-8 8c0 13.233 10.766 24 24 24h216c13.234 0 24-10.767 24-24v-33h34.376c2.909 15.073 21.369 21.675 33.155 11.115l7.468-6.692v104.577c0 4.541 3.802 8.264 8.5 7.975.166.01.331.025.5.025 4.411 0 8 3.589 8 8v15c0 4.411-3.589 8-8 8h-432c-4.411 0-8-3.589-8-8v-15c0-4.411 3.589-8 8-8h385.258c4.418 0 8-3.582 8-8s-3.582-8-8-8h-376.258v-57.29c0-4.418-3.582-8-8-8s-8 3.582-8 8v58.334c-9.829 3.003-17 12.157-17 22.956v15c0 13.233 10.767 24 24 24h432c13.233 0 24-10.767 24-24v-15c0-10.799-7.171-19.953-17-22.957z"/><path d="m364.969 218.506c4.418 0 8-3.582 8-8v-65.064c0-13.233-10.766-24-24-24h-36.569c-4.418 0-8 3.582-8 8s3.582 8 8 8h36.569c4.411 0 8 3.589 8 8v39h-199.129c-4.418 0-8 3.582-8 8s3.582 8 8 8h199.129v10.064c0 4.418 3.582 8 8 8z"/><path d="m303.813 106.926c4.134 1.549 8.748-.546 10.299-4.683 1.551-4.138-.545-8.748-4.683-10.3-22.875-8.574-48.3 5.275-53.243 29.498h-46.396c-4.418 0-8 3.582-8 8s3.582 8 8 8h46.383c3.724 18.236 19.889 32 39.209 32 4.418 0 8-3.582 8-8s-3.582-8-8-8c-13.243 0-24.017-10.774-24.017-24.018 0-16.828 16.818-28.358 32.448-22.497z"/></g></svg>