<svg id="Layer_1" enable-background="new 0 0 480 480" height="512" viewBox="0 0 480 480" width="512" xmlns="http://www.w3.org/2000/svg"><g><path d="m49.055 379.415c4.702 0 8.409-4.031 7.976-8.735-4.66-50.519 34.511-93.945 85.459-94.681 1.515-.021 2.993-.474 4.261-1.303 55.964-36.573 107.39-27.602 106.319-6.61-.668 13.059-19.624 35.143-70.821 57.965-4.036 1.799-5.849 6.528-4.05 10.563 1.799 4.036 6.528 5.847 10.564 4.05 50.559-22.536 79.072-48.021 80.286-71.761 1.928-37.7-62.832-51.122-129.126-8.842-57.723 2.144-104.389 51.759-98.825 112.087.383 4.151 3.87 7.267 7.957 7.267z"/><path d="m392.92 267.484c-7.342 9.243-15.892 17.137-25.41 23.46-21.977 14.593-43.467 17.104-53.797 18.311-12.362 1.446-25.241 1.092-38.283-1.055-4.356-.711-8.475 2.234-9.193 6.594-.718 4.359 2.234 8.476 6.594 9.193 14.517 2.39 28.896 2.78 42.742 1.159 11.562-1.352 35.621-4.162 60.789-20.874 10.917-7.252 20.703-16.281 29.091-26.84 16.263-20.503 41.369-5.388 32.148 18.271-43.473 111.476-138.783 75.94-178.244 111.297h-210.983c-13.233 0-24 10.767-24 24v25c0 13.233 10.767 24 24 24h228c13.233 0 24-10.767 24-24 0-4.418-3.582-8-8-8s-8 3.582-8 8c0 4.411-3.589 8-8 8h-228c-4.411 0-8-3.589-8-8v-25c0-4.411 3.589-8 8-8 226.272 0 214.369.065 215.475-.109 1.673-.27 3.21-1.032 4.449-2.297 31.067-31.605 137.367 1.038 184.21-119.079 15.732-40.361-31.783-69.075-59.588-34.031z"/><path d="m159.041 213h246.723c17.645 0 32-14.355 32-32v-18.451c0-4.418-3.582-8-8-8s-8 3.582-8 8v18.451c0 8.822-7.178 16-16 16h-246.723c-8.822 0-16-7.178-16-16v-149c0-8.822 7.178-16 16-16h246.723c8.822 0 16 7.178 16 16v86c0 4.418 3.582 8 8 8s8-3.582 8-8v-86c0-17.645-14.355-32-32-32h-246.723c-17.645 0-32 14.355-32 32v149c0 17.645 14.355 32 32 32z"/><path d="m169.374 110c-4.418 0-8 3.582-8 8s3.582 8 8 8h10c4.418 0 8-3.582 8-8s-3.582-8-8-8z"/><path d="m385.374 110c-4.418 0-8 3.582-8 8s3.582 8 8 8h10c4.418 0 8-3.582 8-8s-3.582-8-8-8z"/><path d="m353.48 64.546-38.673 14.058-26.395-30.368c-3.185-3.664-8.885-3.671-12.076 0l-26.395 30.368-38.673-14.058c-5.63-2.044-11.439 2.609-10.666 8.551l5.327 40.936c.57 4.381 4.59 7.46 8.965 6.901 4.381-.57 7.471-4.585 6.901-8.966l-3.629-27.891 31.474 11.441c3.116 1.133 6.6.228 8.771-2.271l23.962-27.569 23.962 27.569c2.171 2.498 5.654 3.399 8.771 2.271l31.475-11.441-8.188 62.923h-128.019c-4.418 0-8 3.582-8 8s3.582 8 8 8h144c4.418 0 8-3.582 8-8 0-4.367-3.501-7.91-7.848-7.992l9.619-73.911c.772-5.914-5.004-10.604-10.665-8.551z"/><path d="m290.374 124v-11c0-4.418-3.582-8-8-8s-8 3.582-8 8v11c0 4.418 3.582 8 8 8s8-3.582 8-8z"/></g></svg>