<svg id="Layer_1" enable-background="new 0 0 480 480" height="512" viewBox="0 0 480 480" width="512" xmlns="http://www.w3.org/2000/svg"><g><path d="m243.064 429h-109.064c-8.822 0-16-7.178-16-16v-246c0-8.822 7.178-16 16-16h195c4.418 0 8-3.582 8-8v-92c0-15.009-10.389-27.631-24.352-31.069-1.94-11.302-11.802-19.931-23.648-19.931h-98c-11.846 0-21.708 8.629-23.648 19.931-13.963 3.438-24.352 16.06-24.352 31.069v52.839c0 4.418 3.582 8 8 8s8-3.582 8-8v-52.839c0-6.289 3.657-11.727 8.947-14.34 2.895 10.003 12.131 17.34 23.053 17.34h76.903c4.418 0 8-3.582 8-8s-3.582-8-8-8h-76.903c-4.411 0-8-3.589-8-8v-6c0-4.411 3.589-8 8-8h98c4.411 0 8 3.589 8 8 0 .513.053 1.014.146 1.5-.949 4.989 2.888 9.5 7.854 9.5 8.822 0 16 7.178 16 16v84h-187c-17.645 0-32 14.355-32 32v246c0 16.972 13.284 30.895 30 31.931v11.069c0 13.233 10.767 24 24 24h28c6.41 0 12.438-2.496 16.971-7.029 3.124-3.125 3.124-8.189 0-11.314-3.125-3.123-8.189-3.123-11.314 0-1.511 1.512-3.52 2.344-5.656 2.344h-28c-4.411 0-8-3.589-8-8v-11h95.064c4.418 0 8-3.582 8-8s-3.583-8.001-8.001-8.001z"/><path d="m370 159c-4.418 0-8 3.582-8 8v246c0 8.822-7.178 16-16 16h-66c-4.418 0-8 3.582-8 8v19c0 13.233 10.767 24 24 24h28c5.951 0 11.66-2.194 16.075-6.18 3.279-2.96 3.539-8.019.578-11.299-2.959-3.279-8.019-3.538-11.299-.578-1.469 1.327-3.371 2.057-5.354 2.057h-28c-4.411 0-8-3.589-8-8v-11h58c17.645 0 32-14.355 32-32v-246c0-4.418-3.582-8-8-8z"/><path d="m274 223c0-18.748-15.252-34-34-34-4.418 0-8 3.582-8 8s3.582 8 8 8c9.925 0 18 8.075 18 18v134c0 9.925-8.075 18-18 18s-18-8.075-18-18v-134c0-4.418-3.582-8-8-8s-8 3.582-8 8v134c0 18.748 15.252 34 34 34s34-15.252 34-34z"/><path d="m303 233v114c0 4.418 3.582 8 8 8s8-3.582 8-8v-114c0-4.418-3.582-8-8-8s-8 3.582-8 8z"/><path d="m161 233v114c0 4.418 3.582 8 8 8s8-3.582 8-8v-114c0-4.418-3.582-8-8-8s-8 3.582-8 8z"/></g></svg>