<svg id="Layer_1" enable-background="new 0 0 480 480" height="512" viewBox="0 0 480 480" width="512" xmlns="http://www.w3.org/2000/svg"><g><path d="m146 134c0-4.418-3.582-8-8-8h-50c-4.418 0-8 3.582-8 8v50c0 4.418 3.582 8 8 8h50c4.418 0 8-3.582 8-8zm-16 42h-34v-34h34z"/><path d="m186 192c4.418 0 8-3.582 8-8v-42h42c4.418 0 8-3.582 8-8s-3.582-8-8-8h-50c-4.418 0-8 3.582-8 8v50c0 4.418 3.582 8 8 8z"/><path d="m138 233h-50c-4.418 0-8 3.582-8 8v50c0 4.418 3.582 8 8 8h50c4.418 0 8-3.582 8-8v-50c0-4.418-3.582-8-8-8zm-8 50h-34v-34h34z"/><path d="m348 108c-4.418 0-8 3.582-8 8s3.582 8 8 8c63.963 0 116 52.037 116 116s-52.037 116-116 116-116-52.037-116-116c0-43.068 24.128-81.508 61.747-102.559 2.269-1.269 3.718-3.172 4.14-5.78.172-1.035.113 1.679.113-43.661h2c13.233 0 24-10.767 24-24v-18c0-13.233-10.767-24-24-24h-276c-13.233 0-24 10.767-24 24v18c0 13.233 10.767 24 24 24h2v354h-18c-4.418 0-8 3.582-8 8s3.582 8 8 8h308c4.418 0 8-3.582 8-8s-3.582-8-8-8h-18v-42.032c0-4.418-3.582-8-8-8s-8 3.582-8 8v42.032h-112v-52.097c0-4.418-3.582-8-8-8s-8 3.582-8 8v52.097h-36v-89h88v56.968c0 4.418 3.582 8 8 8s8-3.582 8-8v-56.968h6c4.418 0 8-3.582 8-8s-3.582-8-8-8h-132c-4.418 0-8 3.582-8 8s3.582 8 8 8h6v89h-60v-362c0-4.418-3.582-8-8-8h-10c-4.411 0-8-3.589-8-8v-18c0-4.411 3.589-8 8-8h276c4.411 0 8 3.589 8 8v18c0 4.411-3.589 8-8 8h-215.903c-4.418 0-8 3.582-8 8s3.582 8 8 8h197.903v37.665c-56.028 32.363-78.943 99.045-58.803 157.335h-29.197v-42c0-4.418-3.582-8-8-8s-8 3.582-8 8v50c0 4.418 3.582 8 8 8h43.944c21.7 43.246 66.466 73 118.056 73 72.785 0 132-59.215 132-132s-59.215-132-132-132z"/><path d="m415.479 255.933c4.385.564 8.395-2.52 8.965-6.9l5.328-40.936c.773-5.924-5.017-10.6-10.666-8.551l-38.673 14.058-26.395-30.368c-3.185-3.664-8.885-3.671-12.076 0l-26.395 30.368-38.673-14.058c-5.643-2.047-11.44 2.621-10.666 8.551l9.619 73.911c-4.346.082-7.847 3.625-7.847 7.992 0 4.418 3.582 8 8 8h144c4.418 0 8-3.582 8-8s-3.582-8-8-8h-128.019l-8.189-62.923 31.475 11.441c3.113 1.132 6.599.229 8.771-2.271l23.962-27.568 23.962 27.569c2.171 2.499 5.654 3.401 8.771 2.271l31.475-11.441-3.63 27.891c-.57 4.38 2.519 8.394 6.901 8.964z"/><path d="m340 248v11c0 4.418 3.582 8 8 8s8-3.582 8-8v-11c0-4.418-3.582-8-8-8s-8 3.582-8 8z"/></g></svg>