<svg id="Layer_1" enable-background="new 0 0 480 480" height="512" viewBox="0 0 480 480" width="512" xmlns="http://www.w3.org/2000/svg"><g><path d="m388 0h-296c-22.056 0-40 17.944-40 40v358c0 20.361 15.297 37.207 35 39.677v18.323c0 13.233 10.767 24 24 24h60c7.133 0 13.85-3.143 18.426-8.621 2.833-3.391 2.38-8.437-1.011-11.269-3.392-2.832-8.437-2.379-11.269 1.011-1.528 1.83-3.769 2.879-6.147 2.879h-60c-4.411 0-8-3.589-8-8v-18h144.193c4.418 0 8-3.582 8-8s-3.582-8-8-8h-155.192c-13.234 0-24-10.767-24-24v-358c0-13.233 10.766-24 24-24h296c13.234 0 24 10.767 24 24v358c0 13.233-10.766 24-24 24h-95c-4.418 0-8 3.582-8 8v26c0 13.233 10.767 24 24 24h60c6.31 0 12.269-2.43 16.779-6.84 3.159-3.09 3.215-8.154.125-11.313-3.089-3.159-8.154-3.214-11.313-.126-1.502 1.469-3.487 2.279-5.591 2.279h-60c-4.411 0-8-3.589-8-8v-18h87c22.056 0 40-17.944 40-40v-358c0-22.056-17.944-40-40-40z"/><path d="m175.932 225.524c-.105.321-.188.651-.252.989-1.095 4.452-1.68 9.08-1.68 13.813v141.674c0 4.418 3.582 8 8 8h190c4.418 0 8-3.582 8-8v-326c0-4.418-3.582-8-8-8h-264c-4.418 0-8 3.582-8 8v326c0 4.418 3.582 8 8 8h29.645c4.418 0 8-3.582 8-8s-3.582-8-8-8h-21.645v-310h248v310h-174c0-146.127-.101-134.788.232-138h67.461c4.418 0 8-3.582 8-8s-3.582-8-8-8h-62.428c5.39-9.734 14.558-17.232 25.822-20.277 3.49-.943 5.913-4.109 5.913-7.723v-88h26v88c0 3.614 2.423 6.78 5.913 7.723 18.303 4.947 31.087 21.644 31.087 40.604v91.673h-72.613c-4.418 0-8 3.582-8 8s3.582 8 8 8h72.613v1.517c0 4.418 3.582 8 8 8s8-3.582 8-8v-109.19c0-24.078-14.937-45.513-37-54.106v-82.221h1c4.418 0 8-3.582 8-8s-3.582-8-8-8h-60c-4.418 0-8 3.582-8 8s3.582 8 8 8h1v82.221c-17.404 6.779-30.366 21.55-35.068 39.303z"/></g></svg>