<svg id="Layer_1" enable-background="new 0 0 479 479" height="512" viewBox="0 0 479 479" width="512" xmlns="http://www.w3.org/2000/svg"><g><path d="m111.5 158h50c4.418 0 8-3.582 8-8v-50c0-4.418-3.582-8-8-8h-50c-4.418 0-8 3.582-8 8v50c0 4.418 3.582 8 8 8zm8-50h34v34h-34z"/><path d="m209.5 158h50c4.418 0 8-3.582 8-8v-50c0-4.418-3.582-8-8-8h-50c-4.418 0-8 3.582-8 8v50c0 4.418 3.582 8 8 8zm8-50h34v34h-34z"/><path d="m103.5 344c0 4.418 3.582 8 8 8h50c4.418 0 8-3.582 8-8v-50c0-4.418-3.582-8-8-8h-50c-4.418 0-8 3.582-8 8zm16-42h34v34h-34z"/><path d="m201.5 344c0 4.418 3.582 8 8 8h50c4.418 0 8-3.582 8-8v-50c0-4.418-3.582-8-8-8h-50c-4.418 0-8 3.582-8 8zm16-42h34v34h-34z"/><path d="m103.5 247c0 4.418 3.582 8 8 8h50c4.418 0 8-3.582 8-8v-50c0-4.418-3.582-8-8-8h-50c-4.418 0-8 3.582-8 8zm16-42h34v34h-34z"/><path d="m201.5 247c0 4.418 3.582 8 8 8h50c4.418 0 8-3.582 8-8v-50c0-4.418-3.582-8-8-8h-50c-4.418 0-8 3.582-8 8zm16-42h34v34h-34z"/><path d="m431.5 104h-59c-13.233 0-24 10.767-24 24v6h-6.5c-4.418 0-8 3.582-8 8s3.582 8 8 8h6.5v198h-27v-282h2c13.234 0 24-10.767 24-24v-18c0-13.233-10.766-24-24-24h-276c-13.234 0-24 10.767-24 24v18c0 13.233 10.766 24 24 24h217.452c4.418 0 8-3.582 8-8s-3.582-8-8-8h-217.452c-4.411 0-8-3.589-8-8v-18c0-4.411 3.589-8 8-8h276c4.411 0 8 3.589 8 8v18c0 4.411-3.589 8-8 8h-10c-4.418 0-8 3.582-8 8v405h-112v-42.484c0-4.418-3.582-8-8-8s-8 3.582-8 8v42.484h-36v-70h88v40.549c0 4.418 3.582 8 8 8s8-3.582 8-8v-40.549h6c4.418 0 8-3.582 8-8s-3.582-8-8-8h-132c-4.418 0-8 3.582-8 8s3.582 8 8 8h6v70h-60v-364.226c0-4.418-3.582-8-8-8s-8 3.582-8 8v364.226h-18c-4.418 0-8 3.582-8 8s3.582 8 8 8h308c4.418 0 8-3.582 8-8s-3.582-8-8-8h-18v-99h35c4.418 0 8-3.582 8-8v-228c0-4.411 3.589-8 8-8h59c4.411 0 8 3.589 8 8v243c0 4.411-3.589 8-8 8h-49.774c-4.418 0-8 3.582-8 8s3.582 8 8 8h49.774c13.233 0 24-10.767 24-24v-243c0-13.233-10.767-24-24-24z"/><path d="m410.5 332v-166c0-4.418-3.582-8-8-8s-8 3.582-8 8v166c0 4.418 3.582 8 8 8s8-3.582 8-8z"/></g></svg>