<svg id="Layer_1" enable-background="new 0 0 480 480" height="512" viewBox="0 0 480 480" width="512" xmlns="http://www.w3.org/2000/svg"><g><path d="m436.5 448c-4.418 0-8 3.582-8 8 0 4.411-3.589 8-8 8h-342c-4.411 0-8-3.589-8-8v-18c0-4.411 3.589-8 8-8h332c4.418 0 8-3.582 8-8v-390c0-17.645-14.355-32-32-32h-274c-17.645 0-32 14.355-32 32v133.129c0 4.418 3.582 8 8 8s8-3.582 8-8v-133.129c0-8.822 7.178-16 16-16h274c8.822 0 16 7.178 16 16v382h-264c0-31.829.246-30.782-.582-32.823-1.095-2.728-3.612-4.595-6.388-4.947-24.077-3.126-45.023-15.531-59.444-33.318 5.152-10.16 12.488-19.209 21.418-26.368 3.447-2.764 4.001-7.799 1.238-11.246s-7.798-4-11.246-1.238c-8.382 6.72-15.596 14.831-21.299 23.885-32.309-60.965 12.065-134.945 81.303-134.945 22.49 0 43.117 8.116 59.117 21.568l-24.58 24.58c-8.421-10.139-20.904-16.148-34.537-16.148-24.813 0-45 20.187-45 45 0 4.418 3.582 8 8 8s8-3.582 8-8c0-15.99 13.009-29 29-29 9.28 0 17.736 4.317 23.152 11.534l-75.437 75.438c-5.054 5.055-1.407 13.657 5.657 13.657 2.047 0 4.095-.781 5.657-2.343l26.627-26.628c14.428 4.896 29.933 2.106 41.654-6.877 19.225 6.966 35.001 20.999 44.194 39.301-9.847 12.103-22.859 21.751-38.221 27.715-4.119 1.6-6.161 6.234-4.562 10.354 1.599 4.118 6.234 6.161 10.353 4.563 19.177-7.446 35.282-20.395 47.883-36.676.197-.255.394-.509.564-.779 13.645-18.851 20.479-40.794 20.479-63.259 0-61.448-51.338-110.713-113-107.88v-121.12h222v317.129c0 4.418 3.582 8 8 8s8-3.582 8-8v-325.129c0-4.418-3.582-8-8-8h-238c-4.418 0-8 3.582-8 8v131.057c-49.533 9.801-87 53.576-87 105.943 0 23.246 7.464 45 20.222 62.81.343.631.768 1.22 1.275 1.743 15.624 20.921 38.676 36.111 65.503 41.401v23.046h-26v-6.29c0-4.418-3.582-8-8-8s-8 3.582-8 8v6.29h-2c-13.234 0-24 10.767-24 24v18c0 13.233 10.766 24 24 24h342c13.233 0 24-10.767 24-24 0-4.418-3.582-8-8-8zm-211.587-119.9c-10.222-16.368-25.115-29.264-42.81-37.02 1.86-3.665.64-8.205-2.918-10.41-3.754-2.329-8.687-1.172-11.015 2.583-5.332 8.601-14.572 14.045-25.38 13.77l71.14-71.141c24.842 29.547 27.854 70.212 10.983 102.218z"/><circle cx="321.5" cy="240" r="16"/></g></svg>