<svg id="Layer_1" enable-background="new 0 0 480.036 480.036" height="512" viewBox="0 0 480.036 480.036" width="512" xmlns="http://www.w3.org/2000/svg"><g><path d="m141.835 326.729c16.739 12.771 41.131 14.191 60.746 2.856 3.286-1.897 7.372-1.899 10.658 0 19.4 11.211 43.813 10.063 60.747-2.856 21.592-16.47 23.848-46.474 14.917-67.599-5.442-12.876-14.62-21.153-21.361-25.83-2.266-1.573-3.809-3.899-4.344-6.553-8.945-44.364-63.052-56.527-93.418-30.066-3.331 2.902-3.678 7.956-.775 11.287s7.956 3.678 11.287.775c20.91-18.217 60.666-11.346 67.222 21.165 1.355 6.724 5.229 12.597 10.907 16.537 5.003 3.471 11.795 9.569 15.745 18.914 5.282 12.495 7.009 35.763-9.883 48.648-11.865 9.052-29.16 9.742-43.039 1.724-8.225-4.752-18.443-4.751-26.668 0-13.877 8.02-31.172 7.326-43.038-1.724-16.892-12.886-15.165-36.153-9.882-48.649 3.949-9.344 10.742-15.443 15.745-18.914 3.63-2.519 4.531-7.504 2.013-11.134-2.519-3.629-7.503-4.531-11.134-2.013-6.741 4.678-15.92 12.956-21.361 25.831-8.931 21.127-6.676 51.131 14.916 67.601z"/><path d="m175.036 128.036c7.235 0 13.365 6.854 13.953 15.605.298 4.409 4.112 7.734 8.52 7.445 4.408-.297 7.741-4.111 7.445-8.52-1.152-17.12-14.294-30.531-29.918-30.531-16.542 0-30 14.804-30 33 0 18.87 14.558 34.526 32.517 32.886 4.399-.402 7.641-4.295 7.238-8.695s-4.283-7.638-8.695-7.238c-8.752.795-15.06-7.949-15.06-16.952 0-9.374 6.281-17 14-17z"/><path d="m118.036 183.036c4.418 0 8-3.582 8-8s-3.582-8-8-8c-16.542 0-30 14.804-30 33s13.458 33 30 33c18.067 0 31.678-17.198 29.834-36.491-.42-4.397-4.32-7.611-8.726-7.202-4.397.421-7.622 4.327-7.202 8.726.888 9.29-5.001 18.968-13.906 18.968-7.72 0-14-7.626-14-17s6.281-17.001 14-17.001z"/><path d="m241.036 112.036c-16.542 0-30 14.804-30 33 0 16.789 11.418 30.883 26.559 32.785 4.36.553 8.382-2.54 8.935-6.94.551-4.384-2.557-8.384-6.94-8.935-7.039-.885-12.553-8.313-12.553-16.91 0-9.374 6.28-17 14-17s14 7.626 14 17c0 4.418 3.582 8 8 8s8-3.582 8-8c-.001-18.196-13.459-33-30.001-33z"/><path d="m294.389 216.449c-4.195-1.395-8.721.887-10.107 5.082-1.388 4.194.888 8.721 5.082 10.107 19.109 6.324 38.673-9.301 38.673-31.602 0-18.196-13.458-33-30-33-12.238 0-23.139 8.038-27.769 20.478-1.542 4.141.565 8.747 4.706 10.288 4.14 1.544 8.747-.563 10.288-4.706 2.275-6.111 7.289-10.06 12.774-10.06 7.72 0 14 7.626 14 17 0 10.686-8.492 19.436-17.647 16.413z"/><path d="m368.427 262.601c25.313-103.097-54.505-203.565-160.391-203.565-90.64 0-165 74.376-165 165 0 106.25 100.76 185.739 204.09 160.262 4.289-1.059 6.909-5.394 5.852-9.684-1.058-4.288-5.389-6.907-9.684-5.852-93.276 23.008-184.258-48.807-184.258-144.727 0-82.159 66.841-149 149-149 99.015 0 171.135 96.327 142.911 190.94-12.064 3.477-23.41 9.212-33.598 17.081-3.497 2.7-4.143 7.725-1.441 11.221 2.701 3.498 7.726 4.144 11.221 1.442 14.979-11.569 32.929-17.685 51.907-17.685 46.869 0 85 38.131 85 85s-38.131 85-85 85c-54.555 0-94.949-50.692-82.899-103.868.976-4.309-1.726-8.594-6.035-9.57-4.31-.979-8.594 1.727-9.57 6.035-4.543 20.053-2.894 40.543 4.394 59.125-24.323 10.794-50.147 16.278-76.889 16.278-105.869 0-192-86.131-192-192s86.131-192 192-192 192 86.131 192 192c0 4.418 3.582 8 8 8s8-3.582 8-8c0-55.201-21.734-107.336-61.199-146.801-81.63-81.63-211.937-81.665-293.602 0-81.63 81.63-81.665 211.937 0 293.602 62.829 62.829 154.538 77.369 230.696 43.317 17.77 30.144 50.12 49.882 87.105 49.882 55.691 0 101-45.309 101-101-.001-59.112-51.118-106.676-111.61-100.433z"/><path d="m374.177 396.21 42.517-42.517c3.124-3.125 3.124-8.189 0-11.314-3.125-3.123-8.189-3.123-11.314 0l-36.723 36.724-14.83-15.555c-3.049-3.196-8.112-3.316-11.311-.27-3.197 3.049-3.318 8.112-.27 11.311l20.483 21.484c3.07 3.219 8.239 3.346 11.448.137z"/></g></svg>