<svg id="Layer_1" enable-background="new 0 0 458.197 458.197" height="512" viewBox="0 0 458.197 458.197" width="512" xmlns="http://www.w3.org/2000/svg"><g><path d="m430.609 337.563-131.017-302.022c-8.903-20.528-32.849-29.985-53.381-21.079l-9.288 4.029c-13.614-11.951-30.862-18.491-49.17-18.491-44.503 0-79.75 39.058-74.083 84.072-59.542 55.182-41.605 153.99 33.428 184.979v155.114c0 9.282 4.911 18.07 12.817 22.938l11.558 7.112c8.932 5.496 20.336 5.285 29.061-.532l10.566-7.05c8.639-5.761 13.237-16.021 11.715-26.137-.859-5.704-2.327-11.213-4.354-16.404 1.247-.543-15.094 6.543 133.566-57.937 15.215-6.599 22.193-24.257 15.589-39.477l-30.307-69.863c-1.758-4.054-6.469-5.916-10.522-4.155-4.054 1.758-5.914 6.47-4.155 10.522l30.307 69.863c3.082 7.107-.172 15.347-7.278 18.432l-131.476 57.035c-1.045-8.503.052-16.868 3.321-24.434 6.531-15.114 6.727-33.059.594-48.356v-19c8.187-3.207 14-11.186 14-20.495v-7.175c41.501-17.107 69-57.844 69-103.112 0-70.142-64.109-123.257-133.885-109.3-4.332.867-7.142 5.082-6.275 9.414s5.083 7.132 9.414 6.275c59.99-11.999 114.746 33.676 114.746 93.61 0 40.413-25.585 76.608-63.666 90.067-3.196 1.13-5.334 4.152-5.334 7.543v12.677c0 3.309-2.691 6-6 6-4.418 0-8 3.582-8 8 0 30.212-.232 28.226.664 30.289 4.994 11.477 5.015 25.736.055 37.215-5.704 13.2-6.538 28.053-2.554 42.617 2.02 8.463 4.95 10.696 6.73 22.528.604 4.01-1.269 8.11-4.771 10.445l-10.567 7.05c-3.539 2.362-8.172 2.447-11.797.216l-11.557-7.111c-3.209-1.976-5.203-5.544-5.203-9.312v-160.611c0-3.391-2.138-6.413-5.334-7.543-63.79-22.546-84.495-103.577-39.456-153.869 5.686 14.334 15.675 26.502 28.378 34.898.44.357.924.666 1.443.927 11.494 7.224 25.074 11.42 39.623 11.42 4.418 0 8-3.582 8-8s-3.582-8-8-8c-9.306 0-18.108-2.187-25.934-6.059 5.333-9.841 15.802-16.326 27.28-16.326 17.094 0 31 13.906 31 31 0 20.698-19.878 35.537-39.688 29.769-4.24-1.238-8.684 1.201-9.918 5.443-1.235 4.242 1.202 8.683 5.443 9.918 30.01 8.743 60.162-13.725 60.162-45.13 0-25.916-21.084-47-47-47-16.834 0-32.265 9.19-40.574 23.305-11.941-10.75-19.464-26.317-19.464-43.612-.001-32.364 26.328-58.693 58.692-58.693 11.725 0 22.898 3.412 32.424 9.755l-6.14 2.664c-4.054 1.758-5.914 6.47-4.155 10.522 1.759 4.055 6.468 5.915 10.522 4.155l32.174-13.957c12.44-5.392 26.941.334 32.336 12.769l131.018 302.023c5.407 12.463-.304 26.927-12.769 32.335l-150.548 65.308c-4.054 1.758-5.914 6.47-4.155 10.522 1.309 3.017 4.252 4.818 7.343 4.818 2.419 0-7.312 3.889 153.728-65.971 20.573-8.924 30.008-32.8 21.078-53.38z"/><path d="m42.265 147.171c-5.407-12.464.302-26.927 12.769-32.336l17.133-7.433c4.054-1.758 5.914-6.47 4.155-10.522-1.758-4.054-6.473-5.917-10.522-4.155l-17.133 7.433c-20.576 8.924-30.008 32.801-21.079 53.381l87.976 202.801c1.309 3.017 4.252 4.818 7.343 4.818 5.698 0 9.643-5.868 7.335-11.186z"/></g></svg>